<?xml version="1.0" encoding="UTF-8" standalone="no"?>
<!-- Created with Inkscape (http://www.inkscape.org/) -->

<svg
   width="800"
   height="800"
   viewBox="0 0 211.66666 211.66667"
   version="1.1"
   id="svg1"
   inkscape:version="1.4.2 (f4327f4, 2025-05-13)"
   sodipodi:docname="FINAL.svg"
   inkscape:export-filename="FINAL.png"
   inkscape:export-xdpi="96"
   inkscape:export-ydpi="96"
   xmlns:inkscape="http://www.inkscape.org/namespaces/inkscape"
   xmlns:sodipodi="http://sodipodi.sourceforge.net/DTD/sodipodi-0.dtd"
   xmlns="http://www.w3.org/2000/svg"
   xmlns:svg="http://www.w3.org/2000/svg">
  <sodipodi:namedview
     id="namedview1"
     pagecolor="#ffffff"
     bordercolor="#000000"
     borderopacity="0.25"
     inkscape:showpageshadow="2"
     inkscape:pageopacity="0.0"
     inkscape:pagecheckerboard="0"
     inkscape:deskcolor="#d1d1d1"
     inkscape:document-units="mm"
     inkscape:zoom="0.86481074"
     inkscape:cx="371.75764"
     inkscape:cy="307.00359"
     inkscape:window-width="2560"
     inkscape:window-height="1369"
     inkscape:window-x="-8"
     inkscape:window-y="-8"
     inkscape:window-maximized="1"
     inkscape:current-layer="layer1" />
  <defs
     id="defs1">
    <filter
       inkscape:collect="always"
       style="color-interpolation-filters:sRGB"
       id="filter1"
       x="-0.10098133"
       y="-0.10096495"
       width="1.2019627"
       height="1.2019299">
      <feGaussianBlur
         inkscape:collect="always"
         stdDeviation="6.5094736"
         id="feGaussianBlur1" />
    </filter>
    <filter
       inkscape:collect="always"
       style="color-interpolation-filters:sRGB"
       id="filter2"
       x="-0.07005772"
       y="-0.060708086"
       width="1.1401154"
       height="1.1214162">
      <feGaussianBlur
         inkscape:collect="always"
         stdDeviation="2.7905299"
         id="feGaussianBlur2" />
    </filter>
    <filter
       inkscape:collect="always"
       style="color-interpolation-filters:sRGB"
       id="filter3"
       x="-0.06072611"
       y="-0.10634553"
       width="1.1214522"
       height="1.2126911">
      <feGaussianBlur
         inkscape:collect="always"
         stdDeviation="2.0990431"
         id="feGaussianBlur3" />
    </filter>
    <filter
       inkscape:collect="always"
       style="color-interpolation-filters:sRGB"
       id="filter4"
       x="-0.062725872"
       y="-0.11364228"
       width="1.1254517"
       height="1.2272846">
      <feGaussianBlur
         inkscape:collect="always"
         stdDeviation="2.1701608"
         id="feGaussianBlur4" />
    </filter>
  </defs>
  <g
     inkscape:label="Layer 1"
     inkscape:groupmode="layer"
     id="layer1">
    <path
       style="fill:#cec8c2;stroke:none;stroke-width:3"
       d="M 1.400333,105.99355 A 104.45399,103.30595 0 0 1 105.85433,2.6876291 104.45399,103.30595 0 0 1 210.30833,105.99355 104.45399,103.30595 0 0 1 105.85433,209.29949 104.45399,103.30595 0 0 1 1.400333,105.99355 Z"
       id="path203" />
    <path
       id="circle1"
       style="fill:#1a1a1a;fill-opacity:1;stroke:none;stroke-width:3;stroke-dasharray:none;filter:url(#filter1)"
       d="M 105.08008,28.632812 C 85.868817,28.781325 66.815653,36.414771 52.865001,49.632547 40.014367,61.686392 31.449173,78.237367 29.18153,95.721648 c -2.212789,16.435912 0.99098,33.572562 9.156728,48.021842 7.566208,13.55594 19.29141,24.76667 33.241464,31.60161 14.281693,7.05964 30.767028,9.61174 46.501168,7.03869 16.70884,-2.67433 32.49434,-10.95021 44.06081,-23.32339 11.45799,-12.14982 18.88028,-28.0752 20.61609,-44.70037 1.78448,-16.330915 -1.75579,-33.215955 -10.10194,-47.381064 -8.15339,-13.957332 -20.75563,-25.29676 -35.58416,-31.762861 -10.03859,-4.42008 -21.01835,-6.70263 -31.99161,-6.583293 z" />
    <circle
       style="fill:#929390;fill-opacity:1;stroke:none;stroke-width:3;stroke-dasharray:none"
       id="circle203"
       cx="105.85444"
       cy="105.99352"
       r="74.735497" />
    <path
       id="rect1"
       style="fill:#1a1a1a;stroke:none;stroke-width:2.99999;filter:url(#filter2)"
       d="m 126.68555,50.732422 c -21.29327,0.01127 -42.588864,-0.0205 -63.880641,0.05792 -2.831706,0.208244 -4.962981,3.05511 -4.732161,5.818642 0.04603,14.557819 0.01109,29.116723 0.02692,43.674998 0.01385,18.67776 1.02e-4,37.35786 0.04427,56.03415 0.321701,3.02675 3.599866,5.12925 6.51036,4.61351 28.07284,-0.004 56.146323,-0.008 84.218753,-0.041 3.06514,-0.27067 5.22285,-3.57826 4.70117,-6.51757 -0.007,-32.9725 -0.008,-65.946288 -0.041,-98.917972 -0.22628,-2.859419 -3.11605,-5.001384 -5.90742,-4.743837 -6.98008,0.0071 -13.96015,0.01412 -20.94023,0.02118 z" />
    <rect
       style="fill:#ffffff;stroke:#ffffff;stroke-width:2.99999"
       id="rect619"
       width="87.01429"
       height="101.72826"
       x="62.326187"
       y="54.969204"
       ry="1.0816741" />
    <path
       id="path600"
       style="fill:#808080;stroke-width:3"
       sodipodi:type="inkscape:offset"
       inkscape:radius="1.3006895"
       inkscape:original="M 10022.709 2618.8594 C 10008.65 2618.8594 10007.908 2618.9068 10006.916 2619.8984 C 10005.367 2621.4477 10005.529 2624.2328 10007.246 2625.584 C 10008.557 2626.6153 10009.238 2626.6621 10022.814 2626.6621 L 10037.014 2626.6621 L 10038.613 2625.3164 C 10040.61 2623.636 10040.688 2621.8495 10038.838 2620.1348 L 10037.461 2618.8594 L 10022.709 2618.8594 z "
       d="m 10022.709,2617.5586 c -7.031,0 -10.72,0.01 -12.883,0.1504 -1.081,0.071 -1.794,0.167 -2.414,0.375 -0.62,0.208 -1.114,0.593 -1.416,0.8945 -2.132,2.1326 -1.923,5.7632 0.445,7.627 0.367,0.2887 0.852,0.6149 1.479,0.8183 0.627,0.2035 1.354,0.3091 2.42,0.3828 2.131,0.1476 5.685,0.1563 12.474,0.1563 h 14.2 a 1.3008195,1.3008195 0 0 0 0.838,-0.3047 l 1.599,-1.3457 c 1.166,-0.981 1.957,-2.169 2.016,-3.5176 0.06,-1.3486 -0.647,-2.5966 -1.744,-3.6133 a 1.3008195,1.3008195 0 0 0 0,-0 l -1.377,-1.2754 a 1.3008195,1.3008195 0 0 0 -0.885,-0.3457 z"
       transform="matrix(0.26458333,0,0,0.26458333,-2513.0305,-587.91876)" />
    <path
       id="path620"
       style="fill:#666666;stroke:none;stroke-width:3"
       sodipodi:type="inkscape:offset"
       inkscape:radius="1.0159374"
       inkscape:original="M 9838.502 2436.5332 L 9832.5234 2436.6484 C 9829.2353 2436.712 9816.5715 2436.8207 9804.3809 2436.8887 C 9792.1903 2436.957 9782.1408 2437.0877 9782.0508 2437.1777 C 9781.9604 2437.2681 9781.7677 2440.9654 9781.623 2445.3945 L 9781.3613 2453.4473 L 9798.8027 2453.2031 C 9808.3954 2453.0687 9821.2521 2452.9572 9827.373 2452.957 L 9838.502 2452.957 L 9838.502 2444.7441 L 9838.502 2436.5332 z "
       d="m 9838.4824,2435.5176 -5.9785,0.1152 c -3.26,0.063 -15.9404,0.1723 -28.1289,0.2402 -6.0974,0.034 -11.6598,0.084 -15.7109,0.1368 -2.0256,0.026 -3.6728,0.052 -4.8243,0.078 -0.5757,0.013 -1.0251,0.026 -1.3437,0.039 -0.1593,0.01 -0.2842,0.012 -0.3867,0.019 -0.051,0 -0.094,0.01 -0.1524,0.016 -0.029,0 -0.061,0.01 -0.1211,0.021 -0.03,0.01 -0.066,0.015 -0.1328,0.039 -0.033,0.012 -0.075,0.027 -0.1328,0.059 -0.058,0.031 -0.2379,0.1773 -0.2383,0.1777 -7e-4,7e-4 -0.1142,0.1334 -0.1445,0.1816 -0.03,0.048 -0.048,0.085 -0.062,0.1172 -0.029,0.064 -0.042,0.1046 -0.053,0.1387 -0.021,0.068 -0.03,0.1083 -0.037,0.1465 -0.015,0.076 -0.023,0.1383 -0.031,0.2109 -0.017,0.1452 -0.034,0.3229 -0.051,0.5449 -0.034,0.444 -0.072,1.0572 -0.1113,1.8067 -0.078,1.499 -0.1618,3.5358 -0.2344,5.7558 l -0.2617,8.0528 a 1.016039,1.016039 0 0 0 1.0293,1.0488 l 17.4414,-0.2441 c 9.5879,-0.1344 22.448,-0.2459 28.5566,-0.2461 h 11.129 a 1.016039,1.016039 0 0 0 1.0156,-1.0157 v -8.2129 -8.2109 a 1.016039,1.016039 0 0 0 -1.0352,-1.0156 z"
       transform="matrix(0.26458333,0,0,0.26458333,-2513.0305,-587.91876)" />
    <path
       id="path621"
       style="fill:#666666;stroke:none;stroke-width:3"
       sodipodi:type="inkscape:offset"
       inkscape:radius="1.5266374"
       inkscape:original="M 9859.6758 2434.2871 C 9858.1683 2434.2871 9857.8703 2434.3261 9856.9375 2434.6465 C 9855.2968 2435.2102 9853.9804 2436.0511 9852.6387 2437.3945 C 9851.3709 2438.6638 9850.602 2439.8318 9850.0977 2441.25 C 9849.8278 2442.0083 9849.7969 2442.3225 9849.7969 2444.4316 C 9849.7944 2446.7215 9849.801 2446.7931 9850.1699 2447.6836 C 9851.5754 2451.0774 9854.2874 2453.4617 9857.5566 2454.1777 L 9857.5566 2454.1797 C 9858.677 2454.4228 9860.5888 2454.4238 9861.7949 2454.1797 C 9865.4405 2453.4417 9868.907 2449.919 9869.6309 2446.2168 C 9869.8593 2445.0487 9869.7268 2442.723 9869.3652 2441.5703 C 9868.3186 2438.234 9865.8684 2435.8238 9862.2773 2434.5977 C 9861.5007 2434.3329 9861.118 2434.2871 9859.6758 2434.2871 z "
       d="m 9859.6758,2432.7598 c -1.5338,0 -2.2431,0.1028 -3.2344,0.4433 -1.8446,0.6338 -3.4134,1.642 -4.8828,3.1133 -1.3806,1.3823 -2.3187,2.7914 -2.8984,4.4219 -0.1512,0.4245 -0.2817,0.8998 -0.334,1.4512 -0.052,0.5508 -0.057,1.1799 -0.057,2.2402 -0,1.1464 -0.01,1.7512 0.059,2.3262 0.066,0.575 0.2429,1.056 0.4317,1.5117 1.5744,3.8016 4.6819,6.5725 8.4707,7.4023 a 1.5267901,1.5267901 0 0 0 0,0 c 1.4713,0.3192 3.3509,0.3104 4.8653,0 4.3871,-0.8881 8.1662,-4.742 9.0312,-9.166 0.323,-1.6518 0.1986,-3.7859 -0.3066,-5.3965 -1.1875,-3.7852 -4.0817,-6.6058 -8.0508,-7.961 a 1.5267901,1.5267901 0 0 0 -0,0 c -0.8707,-0.2968 -1.6192,-0.3925 -3.0937,-0.3925 z"
       transform="matrix(0.26458333,0,0,0.26458333,-2513.0305,-587.91876)" />
    <path
       id="path622"
       style="fill:#666666;stroke:none;stroke-width:3"
       sodipodi:type="inkscape:offset"
       inkscape:radius="0.55950314"
       inkscape:original="M 9877.0879 2450.0898 C 9876.4236 2450.0898 9875.0687 2451.2514 9874.8867 2451.9766 C 9874.8397 2452.1448 9874.8417 2452.3982 9874.8867 2452.5391 C 9875.0604 2453.0863 9875.7656 2453.8728 9876.4199 2454.248 L 9876.4238 2454.248 C 9876.8004 2454.464 9877.1397 2454.642 9877.1777 2454.6426 C 9877.2157 2454.6433 9877.583 2454.433 9877.9941 2454.1758 C 9879.2321 2453.4015 9879.5797 2452.2935 9878.9316 2451.1875 C 9878.5739 2450.5771 9877.7563 2450.0898 9877.0879 2450.0898 z "
       d="m 9877.0879,2449.5313 c -0.6583,0 -1.1497,0.3788 -1.6465,0.8046 -0.4944,0.4239 -0.9381,0.8883 -1.0937,1.4961 -0.086,0.3096 -0.096,0.5576 0.01,0.877 0.2591,0.8161 0.9906,1.5667 1.7871,2.0234 a 0.55955909,0.55955909 0 0 0 0.01,0 c 0.1921,0.1101 0.375,0.2113 0.5196,0.2871 0.073,0.038 0.1353,0.069 0.1914,0.096 0.028,0.013 0.053,0.026 0.086,0.039 0.033,0.013 0.01,0.041 0.2227,0.045 0,0 0.1031,-0.01 0.1308,-0.012 0.028,-0.01 0.045,-0.011 0.061,-0.016 0.031,-0.01 0.049,-0.018 0.066,-0.025 0.035,-0.015 0.062,-0.03 0.092,-0.045 0.06,-0.031 0.1284,-0.066 0.207,-0.1113 0.1571,-0.09 0.3555,-0.2098 0.5664,-0.3418 0.7008,-0.4383 1.2021,-1.0083 1.4121,-1.6777 0.21,-0.6695 0.098,-1.4074 -0.289,-2.0684 -0.4801,-0.8192 -1.3859,-1.3731 -2.3262,-1.373 z"
       transform="matrix(0.26458333,0,0,0.26458333,-2513.0305,-587.91876)" />
    <path
       id="path623"
       style="fill:#666666;stroke:none;stroke-width:3"
       sodipodi:type="inkscape:offset"
       inkscape:radius="0.82772583"
       inkscape:original="M 9877.2031 2434.2227 C 9875.9197 2434.2227 9874.6992 2435.3538 9874.6992 2436.543 C 9874.6992 2437.1623 9875.3239 2438.1656 9875.9863 2438.6094 C 9877.2807 2439.4766 9879.5117 2438.1923 9879.5117 2436.5801 C 9879.5117 2435.4 9878.3589 2434.2227 9877.2031 2434.2227 z "
       d="m 9877.2031,2433.3945 c -1.7697,0 -3.332,1.3929 -3.332,3.1485 0,0.5879 0.2297,1.0685 0.5215,1.5371 0.2918,0.4685 0.6619,0.9013 1.1328,1.2168 0.9869,0.6611 2.2003,0.4753 3.1211,-0.055 0.9208,-0.53 1.6933,-1.4742 1.6933,-2.6621 0,-0.8596 -0.3954,-1.6277 -0.957,-2.2012 -0.5615,-0.5734 -1.3207,-0.9844 -2.1797,-0.9844 z"
       transform="matrix(0.26458333,0,0,0.26458333,-2513.0305,-587.91876)" />
    <g
       id="g599"
       transform="matrix(0.37274425,0,0,0.37274425,-166.71637,404.49585)"
       style="stroke-width:2.6828">
      <path
         id="path427"
         style="fill:#4e4343;fill-opacity:1;stroke-width:4.05053"
         sodipodi:type="inkscape:offset"
         inkscape:radius="5.443697"
         inkscape:original="M 5701.0547 -3307.1875 L 5701.0547 -3279.2852 L 5701.0547 -3251.3828 L 5778.4336 -3251.1641 C 5820.9915 -3251.0438 5915.2601 -3250.5001 5987.9199 -3249.9551 C 6060.5797 -3249.4101 6138.4493 -3248.8292 6160.9648 -3248.6641 L 6201.9023 -3248.3633 L 6202.8633 -3255.3691 C 6203.3913 -3259.2218 6203.8223 -3271.7145 6203.8223 -3283.1328 L 6203.8223 -3303.8945 L 6173.25 -3304.7754 C 6156.4344 -3305.2598 6043.3108 -3306.0007 5921.8652 -3306.4219 L 5701.0547 -3307.1875 z "
         d="m 5701.0742,-3312.6309 a 5.4442413,5.4442413 0 0 0 -5.4629,5.4434 v 27.9023 27.9024 a 5.4442413,5.4442413 0 0 0 5.4278,5.4433 l 77.3789,0.2188 c 42.5342,0.1202 136.8093,0.664 209.4609,1.209 72.6591,0.545 150.5268,1.1259 173.0449,1.291 l 40.9375,0.3008 a 5.4442413,5.4442413 0 0 0 5.4336,-4.7031 l 0.961,-7.0059 a 5.4442413,5.4442413 0 0 0 0,-0 c 0.6888,-5.0262 1.0097,-16.9466 1.0097,-28.5019 v -20.7617 a 5.4442413,5.4442413 0 0 0 -5.2871,-5.4414 l -30.5723,-0.8809 c -17.3583,-0.5 -130.0654,-1.2272 -251.5214,-1.6484 z"
         transform="matrix(0.26458333,0,0,0.26458333,-870.00442,0.33497002)" />
      <path
         id="path428"
         style="fill:#4e4343;fill-opacity:1;stroke-width:4.05053"
         sodipodi:type="inkscape:offset"
         inkscape:radius="4.1520023"
         inkscape:original="M 6404.6289 -3386.1465 L 6078.8867 -3385.1797 C 5899.7285 -3384.6478 5741.424 -3383.7977 5727.0996 -3383.291 L 5701.0547 -3382.3691 L 5701.0547 -3357.8613 L 5701.0547 -3333.3535 L 5737.668 -3332.3887 C 5757.8052 -3331.8588 5870.9287 -3330.9788 5989.0527 -3330.4316 L 6203.8223 -3329.4355 L 6203.8223 -3346.4707 L 6203.8223 -3363.5059 L 6210.418 -3370.1016 C 6217.6922 -3377.3758 6225.0099 -3379.0401 6227.7969 -3374.0547 C 6229.1303 -3371.6695 6232.9483 -3371.3646 6267.0332 -3370.9199 C 6303.6274 -3370.4424 6304.9266 -3370.5272 6309.1562 -3373.6543 C 6313.3855 -3376.7812 6313.7158 -3376.8031 6319.8477 -3374.3496 C 6330.8147 -3369.9615 6332.1562 -3366.8998 6332.1562 -3346.2969 L 6332.1562 -3328.3828 L 6368.3926 -3328.3828 L 6404.6289 -3328.3828 L 6404.6289 -3357.2656 L 6404.6289 -3386.1465 z "
         d="m 6404.6172,-3390.2988 -325.7422,0.9668 c -89.582,0.2659 -173.9507,0.6127 -237.7168,0.955 -63.7661,0.3424 -106.5848,0.668 -114.2051,0.9375 l -26.0449,0.9219 a 4.1524175,4.1524175 0 0 0 -4.0059,4.1485 v 24.5078 24.5078 a 4.1524175,4.1524175 0 0 0 4.043,4.1504 l 36.6133,0.9648 c 20.4251,0.5375 133.3423,1.4118 251.4746,1.959 l 214.7695,0.9961 a 4.1524175,4.1524175 0 0 0 4.1719,-4.1523 v -17.0352 -15.3145 l 5.3789,-5.3808 c 3.2568,-3.2568 6.4382,-5.0244 8.3574,-5.461 1.9192,-0.4365 1.9187,-0.3722 2.461,0.5977 0.7268,1.3001 2.4486,2.7403 4.1738,3.334 1.7253,0.5937 3.621,0.8476 6.457,1.0742 5.672,0.4532 15.123,0.631 32.1758,0.8535 18.301,0.2388 27.7323,0.3505 33.5215,-0.025 5.7892,-0.3758 8.8612,-1.8497 11.125,-3.5234 2.0768,-1.5355 2.4794,-1.6378 2.4336,-1.6348 -0.046,0 1.208,0.2414 4.2461,1.4571 5.2285,2.092 6.8435,3.1037 8.0078,5.7578 1.1643,2.654 1.6914,8.2281 1.6914,18.4394 v 17.9141 a 4.1524175,4.1524175 0 0 0 4.1523,4.1523 h 36.2364 36.2363 a 4.1524175,4.1524175 0 0 0 4.1523,-4.1523 v -28.8828 -28.8809 a 4.1524175,4.1524175 0 0 0 -4.164,-4.1523 z"
         transform="matrix(0.26458333,0,0,0.26458333,-870.00442,0.33497002)" />
      <path
         id="path429"
         style="fill:#4e4343;fill-opacity:1;stroke-width:4.05053"
         sodipodi:type="inkscape:offset"
         inkscape:radius="3.1240377"
         inkscape:original="M 6332.0898 -3304.2266 L 6332.5 -3276.6719 L 6332.9121 -3249.1191 L 6338.1973 -3248.1855 C 6341.1037 -3247.672 6357.2392 -3247.162 6374.0547 -3247.0527 L 6404.6289 -3246.8535 L 6404.6289 -3275.5391 L 6404.6289 -3304.2266 L 6368.3594 -3304.2266 L 6332.0898 -3304.2266 z "
         d="m 6332.0898,-3307.3516 a 3.1243501,3.1243501 0 0 0 -3.123,3.1719 l 0.4102,27.5547 0.4121,27.5527 a 3.1243501,3.1243501 0 0 0 2.58,3.0293 l 5.2852,0.9336 c 2.2541,0.3983 6.6234,0.5573 13.1562,0.7637 6.5329,0.2064 14.7918,0.3612 23.2247,0.416 l 30.5742,0.1992 a 3.1243501,3.1243501 0 0 0 3.1445,-3.123 v -28.6856 -28.6875 a 3.1243501,3.1243501 0 0 0 -3.125,-3.125 h -36.2695 z"
         transform="matrix(0.26458333,0,0,0.26458333,-870.00442,0.33497002)" />
      <path
         id="path430"
         style="fill:#4a4141;fill-opacity:1;stroke-width:2.86416"
         sodipodi:type="inkscape:offset"
         inkscape:radius="2.7218349"
         inkscape:original="M 5646.5332 -2530.7441 L 5646.5332 -2524.3398 L 5646.5332 -2517.9375 L 5893.4141 -2517.666 C 6029.1993 -2517.5167 6212.4793 -2517.2745 6300.7031 -2517.1289 L 6461.1113 -2516.8652 L 6461.1113 -2523.8047 L 6461.1113 -2530.7441 L 6053.8223 -2530.7441 L 5646.5332 -2530.7441 z "
         d="m 5646.5332,-2533.4668 a 2.7221071,2.7221071 0 0 0 -2.7227,2.7227 v 6.4043 6.4023 a 2.7221071,2.7221071 0 0 0 2.7188,2.7227 l 246.8809,0.2714 c 135.7846,0.1493 319.0665,0.3916 407.289,0.5371 l 160.4082,0.2637 a 2.7221071,2.7221071 0 0 0 2.7266,-2.7226 v -6.9395 -6.9394 a 2.7221071,2.7221071 0 0 0 -2.7227,-2.7227 h -407.289 z"
         transform="matrix(0.26458333,0,0,0.26458333,-870.00442,0.33497002)" />
      <path
         id="path495"
         style="fill:#2f2929;fill-opacity:1;stroke-width:4.05053"
         sodipodi:type="inkscape:offset"
         inkscape:radius="2.3872077"
         inkscape:original="M 6413.1934 -3524.6602 L 6414.1934 -3423.8789 C 6414.7443 -3368.4499 6415.1966 -3260.4225 6415.1973 -3183.8184 L 6415.1973 -3044.5391 L 6421.3105 -3044.5391 C 6428.9196 -3044.5391 6435.0361 -3041.4802 6437.8164 -3036.2852 C 6440.2866 -3031.6696 6440.3859 -3023.6197 6438.0254 -3019.209 C 6436.012 -3015.447 6424.7538 -3009.8125 6419.25 -3009.8125 L 6415.1973 -3009.8125 L 6415.1973 -2776.043 C 6415.1973 -2647.4698 6415.6495 -2541.8212 6416.2031 -2541.2676 L 6416.2051 -2541.2676 C 6416.7587 -2540.714 6429.9346 -2540.2617 6445.4863 -2540.2617 L 6473.7637 -2540.2617 L 6474.6367 -2563.2852 C 6475.1172 -2575.9487 6475.829 -2796.9962 6476.2188 -3054.502 L 6476.9277 -3522.6953 L 6458.6602 -3523.6777 C 6448.6126 -3524.2179 6434.2706 -3524.6602 6426.791 -3524.6602 L 6413.1934 -3524.6602 z "
         d="m 6413.1934,-3527.0469 a 2.3874465,2.3874465 0 0 0 -2.3868,2.4102 l 1,100.7812 c 0.5508,55.4112 1.0032,163.4424 1.0039,240.0371 v 139.2793 a 2.3874465,2.3874465 0 0 0 2.3868,2.3868 h 6.1132 c 6.9694,0 12.1235,2.7396 14.4004,6.9941 0.969,1.8105 1.6,4.6826 1.6348,7.5176 0.035,2.835 -0.5372,5.6443 -1.4258,7.3047 -0.1836,0.343 -1.0492,1.3179 -2.3262,2.2656 -1.2769,0.9477 -2.9421,1.9487 -4.7148,2.8359 -3.5454,1.7744 -7.6916,3.0352 -9.6289,3.0352 h -4.0527 a 2.3874465,2.3874465 0 0 0 -2.3868,2.3867 v 233.7695 c 0,64.2894 0.1127,122.8462 0.295,165.4043 0.091,21.2791 0.2,38.5587 0.3203,50.5586 0.06,6 0.1218,10.6795 0.1875,13.8887 0.033,1.6046 0.067,2.8386 0.1015,3.7051 0.017,0.4332 0.035,0.7703 0.057,1.0468 0.011,0.1383 0.021,0.2554 0.043,0.4102 0.011,0.077 0.022,0.1586 0.06,0.3125 0.039,0.1539 -0.199,0.2971 0.6406,1.1367 a 2.3874465,2.3874465 0 0 0 0,0 c 0.8403,0.8392 1.0687,0.6551 1.3379,0.7246 0.2695,0.07 0.5082,0.1104 0.7793,0.1504 0.5422,0.08 1.1972,0.1445 2.0059,0.207 1.6173,0.125 3.8225,0.2324 6.4961,0.3242 5.3471,0.1837 12.5486,0.2969 20.3476,0.2969 h 28.2774 a 2.3874465,2.3874465 0 0 0 2.3847,-2.2969 l 0.8731,-23.0234 c 0.1292,-3.4065 0.258,-19.4305 0.3984,-45.961 0.1404,-26.5304 0.2863,-63.3965 0.4297,-107.914 0.2868,-89.035 0.561,-208.6737 0.7559,-337.4277 l 0.709,-468.1934 a 2.3874465,2.3874465 0 0 0 -2.2579,-2.3867 l -18.2675,-0.9824 c -10.0995,-0.543 -24.4244,-0.9864 -31.9981,-0.9864 z"
         transform="matrix(0.26458333,0,0,0.26458333,-870.00442,0.33497002)" />
      <path
         id="path528"
         style="fill:#2f2929;fill-opacity:1;stroke-width:4.05053"
         sodipodi:type="inkscape:offset"
         inkscape:radius="3.2028134"
         inkscape:original="M 6229.8672 -2590.084 C 6132.0879 -2590.0836 5972.0859 -2589.6321 5874.3066 -2589.0801 L 5696.5254 -2588.0762 L 5696.5254 -2564.9238 L 5696.5254 -2541.7715 L 6052.0859 -2541.7715 L 6407.6484 -2541.7715 L 6407.6484 -2565.9277 L 6407.6484 -2590.084 L 6229.8672 -2590.084 z "
         d="m 6229.8672,-2593.2871 c -97.7892,4e-4 -257.789,0.4518 -355.5781,1.0039 l -177.7813,1.0039 a 3.2031337,3.2031337 0 0 0 -3.1855,3.2031 v 23.1524 23.1523 a 3.2031337,3.2031337 0 0 0 3.2031,3.2031 h 355.5605 355.5625 a 3.2031337,3.2031337 0 0 0 3.2032,-3.2031 v -24.1562 -24.1563 a 3.2031337,3.2031337 0 0 0 -3.2032,-3.2031 z"
         transform="matrix(0.26458333,0,0,0.26458333,-870.00442,0.33497002)" />
      <path
         id="path533"
         style="fill:#2f2929;fill-opacity:1;stroke-width:2.02527"
         sodipodi:type="inkscape:offset"
         inkscape:radius="2.1352329"
         inkscape:original="M 5773.8789 -3326.7598 C 5731.024 -3326.921 5702.7522 -3326.9425 5702.5703 -3326.7402 C 5701.9005 -3325.9953 5702.7123 -3313.2642 5703.4785 -3312.498 C 5704.0082 -3311.9683 5931.4849 -3310.7828 6098.8906 -3310.4375 C 6146.4308 -3310.3394 6189.49 -3310.1762 6194.5762 -3310.0742 L 6203.8223 -3309.8887 L 6203.8223 -3316.5996 L 6203.8223 -3323.3105 L 6188.5352 -3323.7598 C 6162.2453 -3324.5311 5902.4437 -3326.2761 5773.8789 -3326.7598 z "
         d="m 5722.2227,-3329.0215 c -6.2264,-1e-4 -11.1189,0.011 -14.4747,0.035 -1.6778,0.012 -2.9714,0.026 -3.8652,0.045 -0.4469,0.01 -0.79,0.021 -1.0547,0.033 -0.1323,0.01 -0.2403,0.013 -0.3672,0.025 -0.063,0.01 -0.1258,0.01 -0.25,0.033 -0.062,0.012 -0.1359,0.025 -0.2832,0.072 -0.074,0.024 -0.1657,0.054 -0.3086,0.125 -0.1428,0.071 -0.636,0.4835 -0.6367,0.4843 -0.5832,0.6486 -0.5378,0.9473 -0.6015,1.2266 -0.064,0.2793 -0.096,0.5244 -0.1211,0.791 -0.051,0.5332 -0.069,1.1386 -0.072,1.832 -0.01,1.3869 0.058,3.1047 0.168,4.8282 0.1099,1.7234 0.264,3.4408 0.4472,4.8281 0.092,0.6936 0.1871,1.2984 0.3047,1.8262 0.059,0.2638 0.1215,0.507 0.2149,0.7714 0.093,0.2645 0.1092,0.539 0.6464,1.0762 0,0 0.918,0.5471 1.043,0.5762 0.125,0.029 0.1834,0.036 0.2383,0.043 0.1098,0.015 0.1819,0.019 0.2637,0.025 0.1634,0.012 0.3481,0.022 0.5859,0.031 0.4756,0.019 1.1471,0.038 2.0215,0.057 1.7488,0.038 4.3053,0.077 7.6074,0.1192 6.6043,0.084 16.1874,0.1759 28.1973,0.2715 24.0197,0.191 57.7381,0.3986 96.6699,0.6015 77.8635,0.4058 176.5851,0.7883 260.291,0.961 47.538,0.098 90.7562,0.2652 95.6465,0.3632 l 9.2461,0.1856 a 2.1354464,2.1354464 0 0 0 2.1777,-2.1348 v -6.7109 -6.7109 a 2.1354464,2.1354464 0 0 0 -2.0722,-2.1348 l -15.2871,-0.4492 c -26.6078,-0.7807 -286.1377,-2.5163 -414.711,-3 -21.4288,-0.081 -39.2113,-0.1267 -51.664,-0.127 z"
         transform="matrix(0.26458333,0,0,0.26458333,-870.00442,0.33497002)" />
      <path
         id="path534"
         style="fill:#2f2929;fill-opacity:1;stroke-width:2.02527"
         sodipodi:type="inkscape:offset"
         inkscape:radius="1.5562757"
         inkscape:original="M 5704.6055 -3245.9727 L 5705.002 -3239.0195 C 5705.22 -3235.1956 5705.5248 -3231.9461 5705.6797 -3231.7988 C 5705.8346 -3231.6516 5779.3386 -3231.2189 5869.0215 -3230.8359 C 5958.7044 -3230.4529 6070.553 -3230.0779 6117.5742 -3230.0039 L 6203.0684 -3229.8691 L 6203.0684 -3236.1973 L 6203.0684 -3242.5273 L 6180.2324 -3242.9941 C 6151.8252 -3243.5746 5971.2976 -3244.8153 5819.2754 -3245.4746 L 5704.6055 -3245.9727 z "
         d="m 5704.6113,-3247.5293 a 1.5564314,1.5564314 0 0 0 -1.5605,1.6445 l 0.3984,6.9532 c 0.1099,1.928 0.2399,3.7105 0.3653,5.0468 0.063,0.6682 0.124,1.2218 0.1835,1.6485 0.03,0.2133 0.058,0.3908 0.096,0.5664 0.019,0.088 0.036,0.1719 0.076,0.2929 0.04,0.121 -0.044,0.2476 0.4375,0.7051 a 1.5564314,1.5564314 0 0 0 0,0 c 6e-4,6e-4 0.6836,0.38 0.7637,0.3965 0.08,0.016 0.1142,0.02 0.1445,0.023 0.061,0.01 0.092,0.01 0.125,0.012 0.067,0 0.132,0.01 0.2129,0.01 0.1619,0.01 0.3815,0.01 0.6699,0.016 0.5768,0.012 1.4195,0.026 2.5215,0.039 2.204,0.027 5.4396,0.056 9.5977,0.09 8.3162,0.067 20.3215,0.1472 35.125,0.2344 29.607,0.1744 70.4059,0.3788 115.248,0.5703 89.6841,0.383 201.5311,0.758 248.5567,0.832 l 85.4941,0.1348 a 1.5564314,1.5564314 0 0 0 1.5586,-1.5566 v -6.3282 -6.33 a 1.5564314,1.5564314 0 0 0 -1.5254,-1.5567 l -22.8359,-0.4668 c -28.4966,-0.5823 -208.9571,-1.8211 -360.9825,-2.4805 z"
         transform="matrix(0.26458333,0,0,0.26458333,-870.00442,0.33497002)" />
      <path
         id="path545"
         style="fill:#2f2929;fill-opacity:1;stroke-width:2.02527"
         sodipodi:type="inkscape:offset"
         inkscape:radius="1.6880465"
         inkscape:original="M 6332.9121 -3322.9473 L 6332.9121 -3316.4316 L 6332.9121 -3309.916 L 6350.0859 -3309.6992 C 6359.5316 -3309.5794 6375.0763 -3309.4026 6384.6289 -3309.3066 L 6401.998 -3309.1328 L 6401.7227 -3315.3613 C 6401.5719 -3318.7866 6401.3331 -3321.7122 6401.1914 -3321.8633 C 6401.0497 -3322.0144 6385.6278 -3322.3206 6366.9219 -3322.543 L 6332.9121 -3322.9473 z "
         d="m 6332.9316,-3324.6348 a 1.6882153,1.6882153 0 0 0 -1.707,1.6875 v 6.5157 6.5156 a 1.6882153,1.6882153 0 0 0 1.666,1.6875 l 17.1739,0.2168 c 9.4481,0.1198 24.9918,0.2965 34.5468,0.3926 l 17.3692,0.1738 a 1.6882153,1.6882153 0 0 0 1.7031,-1.7617 l -0.2754,-6.2285 c -0.076,-1.7307 -0.1727,-3.334 -0.2715,-4.543 -0.049,-0.6045 -0.098,-1.1074 -0.1484,-1.502 -0.025,-0.1973 -0.05,-0.3619 -0.084,-0.5332 -0.017,-0.086 -0.036,-0.17 -0.074,-0.2929 -0.039,-0.1229 0.025,-0.249 -0.4082,-0.711 -6e-4,-6e-4 -0.285,-0.2487 -0.3809,-0.3047 -0.096,-0.056 -0.1659,-0.086 -0.2226,-0.1093 -0.1135,-0.046 -0.178,-0.063 -0.2305,-0.076 -0.105,-0.027 -0.1578,-0.032 -0.207,-0.039 -0.099,-0.015 -0.1685,-0.022 -0.25,-0.029 -0.1631,-0.014 -0.3554,-0.025 -0.6016,-0.037 -0.4924,-0.024 -1.1858,-0.049 -2.0703,-0.076 -1.7691,-0.054 -4.2991,-0.1121 -7.4082,-0.1738 -6.2182,-0.1234 -14.7527,-0.2559 -24.1094,-0.3672 z"
         transform="matrix(0.26458333,0,0,0.26458333,-870.00442,0.33497002)" />
      <path
         id="path549"
         style="fill:#4e4343;fill-opacity:1;stroke-width:4.05053"
         sodipodi:type="inkscape:offset"
         inkscape:radius="5.3379288"
         inkscape:original="M 5701.8105 -3225.9082 L 5700.8984 -3086.5312 C 5700.3965 -3009.8743 5699.8865 -2869.1923 5699.7656 -2773.9043 L 5699.5449 -2600.6504 L 6053.0742 -2600.6504 L 6406.6016 -2600.6504 L 6405.6152 -2619.0039 C 6405.0724 -2629.099 6404.6289 -2721.0791 6404.6289 -2823.4043 L 6404.6289 -3009.4512 L 6375.2324 -3010.0547 C 6348.4685 -3010.6051 6345.4631 -3010.9384 6341.6406 -3013.7676 C 6332.6376 -3020.4311 6331.6287 -3031.0266 6339.1465 -3039.9609 L 6342.9941 -3044.5352 L 6373.8105 -3044.5352 L 6404.6289 -3044.5352 L 6404.6289 -3133.6133 L 6404.6289 -3222.6934 L 6369.3086 -3222.6934 C 6338.495 -3222.6934 6333.8737 -3222.3882 6333.0742 -3220.3047 C 6332.5701 -3218.9911 6332.1562 -3205.768 6332.1562 -3190.9199 L 6332.1562 -3163.9238 L 6325.6621 -3155.9395 C 6320.1092 -3149.1135 6318.3142 -3147.8852 6313.2734 -3147.4688 C 6310.031 -3147.2008 6305.1397 -3147.4029 6302.4043 -3147.916 C 6297.441 -3148.8472 6297.4316 -3148.8675 6297.4316 -3157.8398 C 6297.4316 -3169.7251 6294.1177 -3170.1106 6291.5254 -3158.5273 C 6289.4094 -3149.0721 6287.1655 -3147.7734 6275.2617 -3149.1152 C 6267.192 -3150.0248 6265.779 -3151.7168 6265.748 -3160.502 C 6265.7339 -3164.4497 6265.131 -3166.6404 6264.2148 -3166.0742 C 6263.3844 -3165.561 6262.7051 -3159.7465 6262.7051 -3153.1523 C 6262.7051 -3143.711 6262.2433 -3141.1621 6260.5273 -3141.1621 C 6259.3288 -3141.1621 6257.3175 -3139.6917 6256.0586 -3137.8945 L 6253.7695 -3134.627 L 6247.6699 -3138.8555 C 6241.638 -3143.0356 6241.5684 -3143.1907 6241.5684 -3152.5684 C 6241.5684 -3163.5219 6240.3616 -3168.2239 6238.3613 -3165.0684 C 6237.6592 -3163.9608 6237.0755 -3160.3026 6237.0625 -3156.9395 C 6237.0318 -3148.829 6235.0179 -3147.197 6225.0352 -3147.207 L 6216.6562 -3147.2168 L 6209.4844 -3156.0918 L 6202.3125 -3164.9648 L 6202.3125 -3194.3438 L 6202.3125 -3223.7246 L 6016.2285 -3224.7363 C 5913.882 -3225.2929 5801.2685 -3225.7841 5765.9766 -3225.8281 L 5701.8105 -3225.9082 z "
         d="m 5701.8164,-3231.2461 a 5.3384626,5.3384626 0 0 0 -5.3437,5.3027 l -0.9122,139.377 c -0.502,76.676 -1.0118,217.3559 -1.1328,312.6562 l -0.2207,173.2539 a 5.3384626,5.3384626 0 0 0 5.3379,5.3438 h 353.5293 353.5274 a 5.3384626,5.3384626 0 0 0 5.33,-5.625 l -0.9863,-18.3535 c -0.2289,-4.2575 -0.5108,-30.3178 -0.6894,-67.3535 -0.1787,-37.0357 -0.2891,-85.6049 -0.2891,-136.7598 v -186.0469 a 5.3384626,5.3384626 0 0 0 -5.2285,-5.3359 l -29.3965,-0.6035 c -13.3639,-0.2749 -20.807,-0.5158 -24.9219,-0.9707 -4.1149,-0.455 -4.1494,-0.621 -5.6035,-1.6973 -3.4907,-2.5836 -5.0189,-5.4595 -5.3047,-8.4609 -0.2858,-3.0014 0.7049,-6.4222 3.7188,-10.0039 a 5.3384626,5.3384626 0 0 0 0,-0 l 2.2461,-2.6719 h 28.332 30.8184 a 5.3384626,5.3384626 0 0 0 5.3379,-5.3379 v -89.0781 -89.0801 a 5.3384626,5.3384626 0 0 0 -5.3379,-5.3379 h -35.3203 c -15.4244,0 -24.2661,0.064 -29.7246,0.4239 -2.7293,0.1799 -4.5922,0.3786 -6.4395,0.957 -1.8472,0.5784 -4.2542,2.3476 -5.0547,4.4336 -0.5558,1.4485 -0.4258,1.6725 -0.5019,2.332 -0.076,0.6595 -0.137,1.4043 -0.1953,2.2852 -0.1167,1.7617 -0.2164,4.0425 -0.3008,6.7441 -0.1689,5.4033 -0.2734,12.4619 -0.2734,19.9356 v 25.0996 l -5.2969,6.5117 c -2.6977,3.3162 -4.3419,4.9739 -5.2598,5.6016 -0.9179,0.6276 -1.2847,0.7409 -3.4277,0.9179 -2.5836,0.2136 -7.5936,-0.026 -9.4453,-0.373 -0.2617,-0.049 -0.1895,-0.041 -0.4043,-0.086 -0.083,-0.9872 -0.2149,-2.4783 -0.2149,-4.5918 0,-3.2194 -0.1877,-5.7495 -0.6933,-7.9473 -0.2528,-1.0989 -0.55,-2.1225 -1.2539,-3.2949 -0.704,-1.1725 -2.218,-2.91 -4.7539,-3.2051 -2.536,-0.2951 -4.4324,1.0647 -5.3848,2.0566 -0.9524,0.992 -1.4674,1.9271 -1.9551,2.9434 -0.9754,2.0326 -1.7097,4.4552 -2.4121,7.5937 -0.4908,2.193 -0.9782,3.7107 -1.3535,4.4844 -0.3754,0.7738 -0.4416,0.7408 -0.5723,0.8164 -0.2612,0.1512 -2.8069,0.6179 -8.5312,-0.027 -3.7033,-0.4174 -4.4095,-1.0203 -4.2735,-0.8574 0.1361,0.1628 -0.4855,-1.1366 -0.5,-5.2442 -0.01,-2.242 -0.1097,-4.0236 -0.6191,-5.875 -0.2547,-0.9257 -0.4409,-1.9504 -1.834,-3.3574 -0.6965,-0.7035 -1.9104,-1.5062 -3.4082,-1.6992 -1.4977,-0.193 -2.9358,0.2937 -3.8164,0.8379 -1.8826,1.1635 -2.0793,2.142 -2.375,2.8086 -0.2957,0.6665 -0.4449,1.1968 -0.582,1.7441 -0.2743,1.0946 -0.45,2.2344 -0.6035,3.5488 -0.3072,2.6288 -0.4805,5.881 -0.4805,9.3614 0,4.0156 -0.1553,6.1165 -0.3106,7.4375 -0.7006,0.3569 -1.3084,0.776 -1.8925,1.2031 -1.3164,0.9625 -2.4732,2.1223 -3.4766,3.5547 l 0.7578,-1.084 -1.7344,-1.2012 c -2.9984,-2.0779 -3.4318,-2.5909 -3.4765,-2.6914 -0.045,-0.1005 -0.3282,-1.9591 -0.3282,-6.6348 0,-5.6727 -0.1986,-9.6602 -1.0214,-12.8671 -0.2058,-0.8018 -0.4429,-1.5741 -0.9258,-2.4747 -0.483,-0.9005 -1.241,-2.1686 -3.1582,-2.9863 -1.9172,-0.8176 -4.5002,-0.2369 -5.7207,0.5899 -1.2205,0.8267 -1.7511,1.6307 -2.2266,2.3808 -1.4157,2.2333 -1.3878,3.456 -1.6719,5.2344 -0.284,1.7784 -0.4493,3.7476 -0.457,5.7305 a 5.3384626,5.3384626 0 0 0 0,0 c -0.01,1.8074 -0.1603,3.0375 -0.3047,3.5723 -0.1443,0.5348 -0.083,0.2778 0,0.209 0.1701,-0.1378 -1.6808,0.6375 -6.3809,0.6328 l -5.832,-0.01 -5.5723,-6.8965 -5.9863,-7.4043 v -27.4922 -29.3808 a 5.3384626,5.3384626 0 0 0 -5.3086,-5.3379 l -186.084,-1.0117 c -102.3507,-0.5566 -214.9481,-1.0478 -250.2754,-1.0918 z"
         transform="matrix(0.26458333,0,0,0.26458333,-870.00442,0.33497002)" />
      <path
         id="path550"
         style="fill:#b7b7b7;fill-opacity:1;stroke-width:0.506318"
         sodipodi:type="inkscape:offset"
         inkscape:radius="1.0759243"
         inkscape:original="M 6258.1758 -3167.3535 L 6252.75 -3167.2617 C 6246.7821 -3167.1603 6246.1641 -3167.0629 6246.3672 -3166.2539 C 6246.6016 -3165.3201 6246.8477 -3158.073 6246.8477 -3151.877 L 6246.8535 -3145.6016 L 6252.5137 -3145.6016 L 6258.1758 -3145.6016 L 6258.1758 -3156.4766 L 6258.1758 -3167.3535 z "
         d="m 6258.1582,-3168.4297 -5.4258,0.092 c -2.9891,0.051 -4.6151,0.088 -5.6562,0.252 -0.5206,0.082 -0.9619,0.1446 -1.4024,0.5918 -0.2202,0.2235 -0.3725,0.5677 -0.4043,0.8476 -0.032,0.2799 0.013,0.4882 0.055,0.6543 -0.011,-0.042 0.088,0.6828 0.1426,1.5742 0.055,0.8914 0.1072,2.0714 0.1523,3.416 0.09,2.6894 0.1524,6.0413 0.1524,9.125 l 0.01,6.2754 a 1.0760319,1.0760319 0 0 0 1.0762,1.0762 h 5.6602 5.6621 a 1.0760319,1.0760319 0 0 0 1.0762,-1.0762 v -10.875 -10.8769 a 1.0760319,1.0760319 0 0 0 -1.0938,-1.0762 z"
         transform="matrix(0.26458333,0,0,0.26458333,-870.00442,0.33497002)" />
      <path
         id="path553"
         style="fill:#1e2021;fill-opacity:1;stroke-width:0.506318"
         sodipodi:type="inkscape:offset"
         inkscape:radius="1.4700742"
         inkscape:original="M 6294.1875 -3189.7441 C 6281.8591 -3189.7251 6263.6048 -3189.5115 6238.9258 -3189.1016 C 6229.6357 -3188.9472 6221.8867 -3188.8206 6221.7051 -3188.8203 C 6221.3958 -3188.8198 6221.375 -3188.308 6221.375 -3180.7285 L 6221.375 -3172.6387 L 6222.6484 -3172.5234 C 6225.65 -3172.2527 6230.9394 -3172.1598 6250.5332 -3172.0332 C 6280.2731 -3171.8409 6314.039 -3171.811 6314.0391 -3171.9766 C 6314.0391 -3172.0544 6314.1689 -3174.2781 6314.3281 -3176.918 C 6314.6689 -3182.5668 6314.7615 -3187.3061 6314.5488 -3188.3105 C 6314.4365 -3188.8408 6314.2656 -3189.075 6313.8926 -3189.2168 C 6312.9184 -3189.5872 6306.5159 -3189.7631 6294.1875 -3189.7441 z "
         d="m 6294.1855,-3191.2148 c -12.3431,0.019 -30.6006,0.2326 -55.2832,0.6425 -4.6449,0.077 -8.9063,0.1483 -12.0273,0.1993 -1.5605,0.025 -2.8356,0.046 -3.7324,0.061 -0.8969,0.014 -1.5476,0.022 -1.4395,0.021 -0.2413,4e-4 -0.7852,0.1279 -1.1172,0.4453 -0.3319,0.3174 -0.4213,0.6211 -0.4804,0.8379 -0.1184,0.4336 -0.1271,0.7592 -0.1504,1.332 -0.047,1.1457 -0.051,3.1562 -0.051,6.9473 v 8.0898 a 1.4702212,1.4702212 0 0 0 1.3379,1.4649 l 1.2734,0.1152 c 3.1255,0.2819 8.4111,0.3695 28.0078,0.4961 14.8731,0.096 30.7518,0.1513 42.9141,0.1621 6.0812,0.01 11.2318,-1e-4 14.8672,-0.018 1.8177,-0.01 3.2569,-0.02 4.248,-0.035 0.4956,-0.01 0.8766,-0.016 1.1504,-0.025 0.1369,-0 0.2428,-0.01 0.3457,-0.018 0.052,-0 0.097,-0.01 0.1875,-0.02 0.045,-0.01 0.092,-0.01 0.2305,-0.053 0.069,-0.021 0.3466,-0.1575 0.3477,-0.1582 10e-4,-6e-4 0.6953,-1.2493 0.6953,-1.25 0,0.1947 2e-4,0.021 0,-0.049 0,-0.07 0.01,-0.1734 0.016,-0.3027 0.015,-0.2587 0.036,-0.6251 0.062,-1.0723 0.052,-0.8943 0.1236,-2.1105 0.2031,-3.4297 0.1714,-2.8411 0.2806,-5.4534 0.3203,-7.498 0.02,-1.0223 0.023,-1.9007 0.01,-2.6074 -0.017,-0.7068 -0.029,-1.1783 -0.1348,-1.6797 -0.078,-0.3701 -0.1958,-0.7664 -0.4785,-1.1563 -0.2824,-0.3894 -0.724,-0.6802 -1.0918,-0.8203 h -0 c -0.7064,-0.2682 -1.2016,-0.2609 -2.17,-0.332 -0.9692,-0.071 -2.2614,-0.1276 -3.9062,-0.1719 -3.2895,-0.089 -7.9808,-0.1287 -14.1524,-0.1191 z"
         transform="matrix(0.26458333,0,0,0.26458333,-870.00442,0.33497002)" />
      <path
         id="path554"
         style="fill:#1e2021;fill-opacity:1;stroke-width:0.506318"
         sodipodi:type="inkscape:offset"
         inkscape:radius="0.39943162"
         inkscape:original="M 6271.7344 -3166.5254 C 6270.6987 -3166.4901 6270.6473 -3166.4055 6270.6953 -3166.2383 C 6271.1816 -3164.5409 6271.5742 -3160.5527 6271.5742 -3157.2559 L 6271.5762 -3155.0391 L 6278.3398 -3155.0391 L 6285.1055 -3155.0391 L 6286.459 -3160.2754 C 6287.204 -3163.1559 6287.8105 -3165.6216 6287.8105 -3165.7539 C 6287.8015 -3166.3507 6286.7813 -3166.4348 6278.6816 -3166.5098 C 6274.7898 -3166.546 6272.7701 -3166.5607 6271.7344 -3166.5254 z "
         d="m 6271.7207,-3166.9238 c -0.5285,0.018 -0.8009,0.033 -1.041,0.1152 -0.1201,0.041 -0.2768,0.1246 -0.3535,0.2969 -0.077,0.1722 -0.035,0.3142 -0.016,0.3828 0.4564,1.5929 0.8633,5.608 0.8633,8.873 l 0,2.2168 a 0.39947156,0.39947156 0 0 0 0.3985,0.3985 h 6.7636 6.7657 a 0.39947156,0.39947156 0 0 0 0.3867,-0.2989 l 1.3535,-5.2363 c 0.3728,-1.4415 0.7118,-2.7783 0.957,-3.7734 0.1227,-0.4976 0.2218,-0.9092 0.291,-1.2071 0.035,-0.1489 0.061,-0.2687 0.08,-0.3593 0.01,-0.045 0.018,-0.084 0.024,-0.1172 0.01,-0.033 0.012,-0.037 0.012,-0.1211 a 0.39947156,0.39947156 0 0 0 0,-0.01 c -0,-0.1314 -0.04,-0.2985 -0.1406,-0.4336 -0.1011,-0.135 -0.2426,-0.225 -0.3965,-0.289 -0.3078,-0.1281 -0.7096,-0.1904 -1.3594,-0.2442 -1.2996,-0.1075 -3.5759,-0.146 -7.627,-0.1836 -3.892,-0.036 -5.9077,-0.05 -6.9648,-0.014 z"
         transform="matrix(0.26458333,0,0,0.26458333,-870.00442,0.33497002)" />
      <path
         id="path555"
         style="fill:#645656;fill-opacity:1;stroke-width:0.506318"
         sodipodi:type="inkscape:offset"
         inkscape:radius="1.0162816"
         inkscape:original="M 6207.5977 -3197.8789 L 6207.5977 -3182.7012 L 6207.5977 -3167.5215 L 6213.4961 -3160.2539 L 6219.3926 -3152.9883 L 6225.3594 -3152.9766 L 6231.3262 -3152.9668 L 6231.6348 -3155.2773 C 6231.8046 -3156.5488 6232.0687 -3159.3729 6232.2227 -3161.5527 C 6232.3766 -3163.7325 6232.5343 -3165.9191 6232.5723 -3166.4121 L 6232.6426 -3167.3086 L 6226.7598 -3167.3086 C 6220.4609 -3167.3086 6219.0486 -3167.4465 6217.9531 -3168.1602 C 6216.1429 -3169.3395 6215.8331 -3172.2595 6216.2812 -3183.918 C 6216.5477 -3190.8499 6216.8545 -3192.8461 6217.7012 -3193.168 C 6219.4027 -3193.8149 6237.2068 -3194.0975 6279.3145 -3194.1465 C 6316.2169 -3194.1894 6316.9043 -3194.1649 6318.3438 -3192.8203 C 6319.3384 -3191.8911 6319.3798 -3191.5198 6319.4648 -3182.3711 C 6319.583 -3169.7003 6319.3295 -3168.2039 6316.8711 -3167.0488 C 6316.0657 -3166.6709 6315.6775 -3166.6469 6309.3691 -3166.5879 L 6302.7148 -3166.5254 L 6302.7148 -3159.7461 L 6302.7148 -3152.9668 L 6309.1797 -3152.9668 L 6315.6445 -3152.9668 L 6321.1172 -3159.0078 C 6325.1292 -3163.436 6326.6238 -3165.2114 6326.7168 -3165.6582 C 6326.7868 -3165.9935 6326.9792 -3172.8063 6327.1445 -3180.7988 C 6327.3098 -3188.7914 6327.4928 -3195.9049 6327.5488 -3196.6055 L 6327.6504 -3197.8789 L 6267.623 -3197.8789 L 6207.5977 -3197.8789 z "
         d="m 6207.5977,-3198.8945 a 1.0163832,1.0163832 0 0 0 -1.0157,1.0156 v 15.1777 15.1797 a 1.0163832,1.0163832 0 0 0 0.2266,0.6406 l 5.8984,7.2676 5.8965,7.2656 a 1.0163832,1.0163832 0 0 0 0.7871,0.375 l 5.9668,0.012 5.9668,0.01 a 1.0163832,1.0163832 0 0 0 1.0098,-0.8808 l 0.3086,-2.3106 c 0.1776,-1.3301 0.4383,-4.1381 0.5937,-6.3379 0.1538,-2.1779 0.3127,-4.3721 0.3496,-4.8515 v -0 l 0.07,-0.8945 a 1.0163832,1.0163832 0 0 0 -1.0136,-1.0957 h -5.8828 c -3.1421,0 -5.0581,-0.038 -6.2559,-0.1543 -1.1978,-0.116 -1.5906,-0.2691 -1.9961,-0.5332 -0.3029,-0.1974 -0.5045,-0.4081 -0.7148,-0.8809 -0.2104,-0.4728 -0.3943,-1.2169 -0.5118,-2.3242 -0.2349,-2.2145 -0.2079,-5.8451 0.016,-11.6621 0.1328,-3.4547 0.2788,-5.6753 0.4804,-6.9883 0.1008,-0.6565 0.223,-1.0849 0.3106,-1.2812 0.088,-0.1963 0.07,-0.1066 -0.025,-0.07 -0.051,0.019 0.4409,-0.097 1.1445,-0.164 0.7037,-0.067 1.6913,-0.1308 2.9649,-0.1895 2.5471,-0.1173 6.2409,-0.2142 11.1992,-0.2929 9.9166,-0.1575 24.8936,-0.2412 45.9453,-0.2657 18.451,-0.021 27.8569,-0.025 32.7773,0.1426 2.4603,0.084 3.8027,0.219 4.5098,0.3789 0.7072,0.1599 0.7154,0.2216 1.0469,0.5313 0.2265,0.2116 0.286,0.2759 0.3574,0.4277 0.071,0.1518 0.1599,0.459 0.2266,1.0801 0.1334,1.2422 0.1723,3.636 0.2148,8.209 0.059,6.3282 0.01,9.8732 -0.3164,11.8008 -0.1631,0.9637 -0.3831,1.4863 -0.6211,1.8105 -0.238,0.3242 -0.528,0.5255 -1.0722,0.7812 -0.3534,0.1658 -0.3882,0.1987 -1.3184,0.2559 -0.9302,0.057 -2.6086,0.08 -5.7617,0.1094 l -6.6543,0.062 a 1.0163832,1.0163832 0 0 0 -1.0059,1.0156 v 6.7793 6.7793 a 1.0163832,1.0163832 0 0 0 1.0156,1.0156 h 6.4649 6.4648 a 1.0163832,1.0163832 0 0 0 0.7539,-0.334 l 5.4727,-6.041 c 2.0092,-2.2176 3.389,-3.772 4.293,-4.8457 0.4519,-0.5368 0.7833,-0.9504 1.0254,-1.2851 0.242,-0.3347 0.4149,-0.4823 0.5214,-0.9942 0.035,-0.1666 0.027,-0.1842 0.033,-0.2676 0.01,-0.083 0.013,-0.1831 0.02,-0.3046 0.013,-0.2431 0.026,-0.5723 0.041,-0.9805 0.031,-0.8164 0.067,-1.9503 0.1055,-3.3242 0.078,-2.7479 0.1673,-6.4508 0.25,-10.4492 0.083,-3.9948 0.1707,-7.7701 0.2441,-10.6329 0.073,-2.8627 0.145,-4.9496 0.1582,-5.1152 l 0.1016,-1.2734 a 1.0163832,1.0163832 0 0 0 -1.0137,-1.0957 h -60.0274 z"
         transform="matrix(0.26458333,0,0,0.26458333,-870.00442,0.33497002)" />
      <path
         id="path557"
         style="fill:#1e2021;fill-opacity:1;stroke-width:0.716041"
         sodipodi:type="inkscape:offset"
         inkscape:radius="2.4021015"
         inkscape:original="M 6269.8516 -3290.4043 C 6264.3331 -3290.7308 6258.4728 -3289.547 6253.3984 -3286.9883 C 6246.9762 -3283.75 6242.696 -3279.2389 6238.9355 -3271.7461 C 6236.3936 -3266.6813 6236.2921 -3266.1036 6236.4395 -3257.5117 C 6236.5682 -3250.0086 6236.5577 -3250.0689 6238.9141 -3245.3691 C 6242.1894 -3238.8363 6245.9922 -3234.5884 6251.5762 -3231.2324 C 6255.1834 -3229.0644 6259.8841 -3227.3905 6264.3086 -3226.6953 C 6267.6475 -3226.1707 6272.7868 -3226.8063 6277.2754 -3228.2988 C 6290.2322 -3232.607 6299.6367 -3245.3413 6299.6367 -3258.5801 C 6299.6367 -3268.1743 6294.6679 -3277.84 6286.5918 -3283.959 C 6283.5816 -3286.2398 6278.6427 -3288.6743 6275.2148 -3289.5684 C 6273.4928 -3290.0175 6271.6911 -3290.2955 6269.8516 -3290.4043 z "
         d="m 6269.9941,-3292.8027 c -5.9603,-0.3527 -12.2054,0.9105 -17.6777,3.6699 -6.8399,3.4489 -11.6124,8.5081 -15.5273,16.3086 -1.2817,2.5536 -2.092,4.2638 -2.4766,6.457 -0.3846,2.1933 -0.3493,4.5902 -0.2754,8.8965 0.1287,7.5011 0.3765,8.4827 2.7305,13.1777 3.4222,6.8258 7.6319,11.5502 13.5703,15.1192 3.929,2.3614 8.8468,4.1051 13.5976,4.8515 4.0062,0.6295 9.2819,-0.096 14.0977,-1.6972 13.9714,-4.6456 24.0059,-18.1842 24.0059,-32.5606 0,-10.4235 -5.3275,-20.725 -13.9961,-27.2929 -3.3625,-2.5477 -8.3096,-4.9989 -12.2227,-6.0196 -1.8837,-0.4912 -3.8382,-0.7926 -5.8262,-0.9101 z"
         transform="matrix(0.26458333,0,0,0.26458333,-870.00442,0.33497002)" />
      <path
         id="path558"
         style="fill:#b1a6a6;stroke-width:0.133963"
         d="m 776.53434,-892.06947 c -0.3133,-0.0343 -0.702,0.10613 -1.14517,0.34314 -0.44315,0.23702 -0.92819,0.58177 -1.36322,0.99941 -0.23934,0.22979 -0.59229,0.64961 -0.81131,0.96221 l -0.38241,0.54571 c -0.0198,0.0287 -0.0306,0.0628 -0.0305,0.0977 v 3.4122 c 5e-5,1.87531 -0.0228,4.93866 -0.0506,6.80474 -0.0281,1.86949 -0.0589,6.08224 -0.0682,9.36482 -0.0159,5.60099 -0.0399,6.74391 -0.17106,8.17417 -0.0276,0.30078 -0.0235,0.78153 -0.003,1.24023 0.0217,0.45869 -0.22768,0.8903 -0.16825,1.10956 0.13827,0.5102 -0.15396,1.02113 -0.12409,2.85231 0.0172,1.05889 0.0122,1.82664 -0.0196,2.35033 -0.0317,0.52371 0.21225,0.82184 0.14306,0.95601 -0.28167,0.54621 -0.0381,1.63211 -0.0383,4.10266 v 1.78543 c 1.3e-4,0.0938 0.0762,0.16989 0.17002,0.17003 h 1.14102 1.14154 c 0.0936,-1.6e-4 0.16957,-0.0759 0.17,-0.16952 l 0.0336,-9.54979 c 0.0206,-5.87375 0.0509,-11.51237 0.0832,-15.84503 0.0323,-4.33268 0.0671,-7.371 0.0946,-8.00417 0.0395,-0.91318 0.043,-0.95382 0.18965,-1.35496 0.18307,-0.50099 0.4775,-0.95649 0.90589,-1.39681 0.42153,-0.43326 0.73318,-0.67324 1.46864,-1.12964 l 0.56018,-0.34777 9.95183,0.031 9.96013,0.031 0.61338,0.30644 c 1.09382,0.54589 1.5009,0.88109 1.99472,1.63867 0.28139,0.43172 0.63945,1.19811 0.75862,1.61592 0.24624,0.86325 0.30853,3.12065 0.44698,20.02462 0.0409,4.98477 0.089,10.16862 0.10647,11.52281 l 0.0315,2.45928 c 0,0.093 0.077,0.16782 0.17003,0.16796 h 0.83507 0.83511 c 0.0923,-1.1e-4 0.16764,-0.0737 0.17002,-0.1659 l 0.0346,-1.50325 c 0.0188,-0.82476 0.0576,-1.8554 0.0853,-2.27738 0.0103,-0.15841 0.0151,-0.61262 0.0175,-1.44126 0.003,-0.82868 0.003,-2.02073 -0.003,-3.6158 -0.009,-3.19013 -0.0317,-7.99116 -0.0692,-14.71126 l -0.10594,-18.97507 c -2.1e-4,-0.0453 -0.0185,-0.0886 -0.0506,-0.12041 l -0.60825,-0.59944 c -0.66715,-0.65728 -1.3062,-1.12723 -1.98229,-1.45417 -0.31332,-0.15153 -0.53618,-0.23977 -0.76277,-0.2036 -0.22656,0.0362 -0.38478,0.20278 -0.54464,0.43511 -0.22299,0.32411 -0.98446,0.80793 -1.54101,0.94154 -0.0169,0.004 -0.16823,0.0212 -0.38447,0.032 -0.21622,0.0109 -0.51263,0.0206 -0.88212,0.029 -0.73898,0.0167 -1.7712,0.0286 -3.05149,0.0346 -2.56056,0.0122 -6.1141,0.003 -10.30944,-0.031 l -6.15622,-0.0486 -0.31935,-0.31732 c -0.17452,-0.1732 -0.32083,-0.35406 -0.42013,-0.51107 -0.0993,-0.157 -0.14417,-0.29776 -0.14417,-0.33898 0,-0.11293 -0.0385,-0.2263 -0.11682,-0.30388 -0.0783,-0.0776 -0.18137,-0.11311 -0.28575,-0.12454 z"
         sodipodi:nodetypes="csssccsssscssssscccccsssssscccssssscccccssscsccssssssssccsssscc" />
      <path
         id="path560"
         style="fill:#b1a6a6;fill-opacity:1;stroke-width:0.716041"
         sodipodi:type="inkscape:offset"
         inkscape:radius="1.7143881"
         inkscape:original="M 6258.8008 -3340.9961 C 6237.2903 -3341.0413 6231.9798 -3340.9841 6230.8496 -3340.6934 C 6228.9652 -3340.2088 6226.3017 -3338.2859 6223.6777 -3335.5137 L 6221.5176 -3333.2324 L 6221.3379 -3306.3145 C 6221.0881 -3269.057 6220.684 -3223.9376 6220.4941 -3212.2051 L 6220.3359 -3202.3965 L 6268.1562 -3202.3965 L 6315.9785 -3202.3965 L 6315.8066 -3218.8789 C 6315.7126 -3227.9434 6315.5155 -3251.2742 6315.3691 -3270.7246 C 6315.0183 -3317.3167 6314.7428 -3327.0397 6313.6426 -3331.4434 C 6313.1478 -3333.4239 6310.6064 -3337.2602 6309.0938 -3338.3105 C 6305.9232 -3340.5121 6298.4079 -3340.9131 6258.8008 -3340.9961 z M 6269.291 -3295.2422 C 6271.9049 -3295.1479 6274.4626 -3294.8502 6276.2832 -3294.375 C 6283.2373 -3292.5599 6288.1393 -3289.703 6293.502 -3284.3398 C 6301.1063 -3276.7349 6304.1719 -3269.3352 6304.1719 -3258.5801 C 6304.1719 -3247.9613 6300.9934 -3240.282 6293.5098 -3232.8203 C 6288.0697 -3227.3962 6282.183 -3224.1256 6275.0137 -3222.543 C 6272.2605 -3221.9352 6264.9418 -3221.7895 6261.8691 -3222.2812 C 6257.4446 -3222.9895 6252.1994 -3224.966 6248.3418 -3227.377 C 6244.4817 -3229.7896 6239.6267 -3234.4044 6237.2598 -3237.9121 C 6234.4447 -3242.084 6232.2789 -3247.6147 6231.4258 -3252.8125 C 6230.7227 -3257.0957 6230.9942 -3263.4301 6232.0566 -3267.5508 C 6232.8984 -3270.816 6234.1303 -3273.9142 6235.7031 -3276.7266 C 6238.0907 -3280.996 6243.149 -3286.639 6245.6465 -3287.8184 C 6246.3492 -3288.1502 6247.2068 -3288.7692 6247.5527 -3289.1934 C 6248.9968 -3290.9644 6256.7785 -3294.042 6261.9609 -3294.8926 C 6264.0063 -3295.2283 6266.6771 -3295.3365 6269.291 -3295.2422 z "
         d="m 6258.8047,-3342.7109 c -10.7571,-0.023 -17.4638,-0.02 -21.6406,0.025 -4.1769,0.045 -5.576,0.032 -6.7422,0.332 -2.5665,0.66 -5.2382,2.7567 -7.9883,5.6621 l -2.1602,2.2793 a 1.7145596,1.7145596 0 0 0 -0.4707,1.168 l -0.1797,26.9179 c -0.2497,37.2544 -0.6543,82.393 -0.8437,94.0938 l -0.1582,9.8086 a 1.7145596,1.7145596 0 0 0 1.7148,1.7422 h 47.8203 47.8223 a 1.7145596,1.7145596 0 0 0 1.7149,-1.7325 l -0.1719,-16.4824 c -0.094,-9.0588 -0.2911,-32.3926 -0.4375,-51.8418 -0.3509,-46.597 -0.5496,-56.2069 -1.7774,-61.1211 -0.3516,-1.4073 -1.1737,-2.8735 -2.1269,-4.3125 -0.9533,-1.439 -1.9174,-2.7205 -3.1074,-3.5469 -2.0665,-1.4349 -5.0631,-2.0513 -12.3692,-2.4414 -7.306,-0.3901 -19.0893,-0.5092 -38.8984,-0.5507 z m 10.4238,49.1816 c 2.5243,0.091 5.0109,0.3922 6.6211,0.8125 6.7193,1.7538 11.2309,4.3808 16.4395,9.5898 7.374,7.3747 10.1679,14.1176 10.1679,24.5469 0,10.2767 -2.9192,17.3271 -10.1582,24.5449 -5.2462,5.2308 -10.7776,8.3004 -17.6543,9.8184 -2.185,0.4824 -9.9028,0.6584 -12.5039,0.2422 -4.1418,-0.663 -9.2682,-2.5915 -12.8906,-4.8555 -3.5748,-2.2342 -8.4195,-6.8564 -10.5684,-10.041 -2.6501,-3.9275 -4.7549,-9.2868 -5.5644,-14.2187 -0.6479,-3.947 -0.3744,-10.2555 0.5996,-14.0332 0.8063,-3.1276 1.9853,-6.0905 3.4824,-8.7676 1.0991,-1.9654 2.9085,-4.3859 4.711,-6.3965 1.8024,-2.0107 3.7705,-3.6508 4.4687,-3.9805 0.9601,-0.4533 1.7952,-0.975 2.502,-1.8418 0.038,-0.047 0.6958,-0.5918 1.623,-1.0957 0.9272,-0.5039 2.1452,-1.059 3.4824,-1.5879 2.6744,-1.0578 5.8515,-2.0142 8.252,-2.4082 1.8681,-0.3066 4.4656,-0.4192 6.9902,-0.3281 z"
         transform="matrix(0.26458333,0,0,0.26458333,-870.00442,0.33497002)" />
      <g
         id="g598"
         transform="translate(-427.7268,-226.00311)"
         style="stroke-width:2.6828">
        <path
           id="path561"
           style="fill:#2f2929;fill-opacity:1;stroke-width:3.79405"
           sodipodi:type="inkscape:offset"
           inkscape:radius="2.9999657"
           inkscape:original="M 6018.8926 -3524.9277 L 6018.8926 -3500.8145 C 6018.8926 -3473.7187 6017.9038 -3469.8995 6010.0977 -3466.8594 C 6003.5278 -3464.3008 5735.0229 -3463.0266 5728.9902 -3465.5254 C 5721.8517 -3468.4822 5720.4941 -3473.8878 5720.4941 -3499.332 L 5720.4941 -3522.0996 L 5708.4727 -3522.0996 L 5696.4531 -3522.0996 L 5696.4531 -3505.3594 C 5696.4531 -3496.1525 5696.874 -3467.5136 5697.3887 -3441.7188 L 5698.3242 -3394.8203 L 5835.627 -3394.8691 C 5982.5826 -3394.9224 6406.5083 -3397.1818 6406.9531 -3397.9141 C 6407.1003 -3398.1564 6406.9686 -3426.8332 6406.6602 -3461.6406 L 6406.0977 -3524.9277 L 6212.4961 -3524.9277 L 6018.8926 -3524.9277 z "
           d="m 6018.8926,-3527.9277 a 3.0002657,3.0002657 0 0 0 -3,3 v 24.1132 c 0,13.5115 -0.3267,21.1986 -1.375,25.2461 -1.0484,4.0476 -1.9607,4.5327 -5.5078,5.9141 0.5897,-0.2297 0.014,-0.02 -0.6094,0.049 -0.623,0.069 -1.5304,0.1439 -2.668,0.2168 -2.2752,0.1459 -5.4801,0.289 -9.4551,0.4258 -7.9498,0.2737 -18.9907,0.5242 -32.0761,0.7441 -26.1709,0.4399 -60.5315,0.7609 -94.8731,0.9239 -34.3416,0.1629 -68.6678,0.1664 -94.7715,-0.025 -13.0518,-0.096 -24.0502,-0.241 -31.9492,-0.4395 -3.9495,-0.099 -7.1287,-0.2117 -9.373,-0.3359 -1.1222,-0.062 -2.0138,-0.1291 -2.6172,-0.1914 -0.6035,-0.062 -1.209,-0.3124 -0.4785,-0.01 -3.0342,-1.2568 -4.0819,-2.1232 -5.1641,-6.4297 -1.0822,-4.3064 -1.4805,-11.9367 -1.4805,-24.6054 v -22.7676 a 3.0002657,3.0002657 0 0 0 -3,-3 h -12.0214 -12.0196 a 3.0002657,3.0002657 0 0 0 -3,3 v 16.7402 c 0,9.2984 0.4206,37.8947 0.9356,63.7012 l 0.9355,46.8984 a 3.0002657,3.0002657 0 0 0 3.002,2.9395 l 137.3027,-0.049 c 73.4921,-0.027 216.2097,-0.6046 340.6191,-1.2676 62.2048,-0.3316 119.8301,-0.6844 161.9356,-1 21.0528,-0.1578 38.2241,-0.3074 50.1523,-0.4395 5.9642,-0.066 10.6181,-0.1265 13.7969,-0.1836 1.5894,-0.029 2.808,-0.055 3.6543,-0.082 0.4232,-0.013 0.7473,-0.026 1.0098,-0.041 0.1312,-0.01 0.2405,-0.015 0.3906,-0.031 0.075,-0.01 0.1498,-0.014 0.3262,-0.049 0.1764,-0.035 2.0021,-1.3917 2.0039,-1.3945 6e-4,-0 0.2584,-0.5305 0.3008,-0.666 0.042,-0.1356 0.06,-0.2204 0.074,-0.2891 0.029,-0.1373 0.038,-0.2081 0.045,-0.2676 0.015,-0.1189 0.017,-0.1806 0.021,-0.2441 0.01,-0.1271 0.014,-0.2368 0.018,-0.3711 0.01,-0.2687 0.014,-0.6169 0.02,-1.0645 0.01,-0.8951 0.016,-2.1779 0.018,-3.8164 0,-3.277 -0.011,-7.9755 -0.037,-13.7539 -0.053,-11.5568 -0.1622,-27.4307 -0.3164,-44.8379 l -0.5625,-63.2871 a 3.0002657,3.0002657 0 0 0 -3,-2.9726 h -193.6016 z"
           transform="matrix(0.26458333,0,0,0.26458333,-442.27762,226.33808)" />
        <path
           style="fill:#020101;stroke-width:2.6828"
           d="m 1243.3701,-438.0207 c -0.035,-0.0343 -43.4029,-0.0847 -96.3725,-0.11192 -54.1323,-0.0278 -96.4558,-0.12287 -96.645,-0.21699 -0.2958,-0.14707 -0.3368,-0.48292 -0.3368,-2.75842 v -2.59095 h -2.183 c -1.9443,0 -2.2215,-0.0424 -2.5341,-0.38785 -0.338,-0.37347 -0.3688,-5.2544 -0.8336,-131.72405 l -0.4826,-131.3362 0.5003,-0.5003 0.5003,-0.5003 13.0571,0.0415 13.0571,0.0415 0.3255,-0.73421 c 0.5293,-1.19394 1.4125,-2.11068 2.4043,-2.49563 0.8764,-0.34016 2.4386,-0.35747 36.7672,-0.40729 24.8593,-0.0361 36.0848,0.0106 36.6112,0.15241 0.9649,0.25983 2.0168,1.17812 2.3246,2.02948 l 0.2388,0.6603 23.2928,0.0182 c 12.811,0.01 23.9422,0.0407 24.7359,0.0682 0.7938,0.0275 14.9514,0.0828 31.4614,0.12292 16.51,0.0401 33.2075,0.11764 37.1055,0.1723 6.8003,0.0953 7.0991,0.11496 7.3796,0.48423 0.2603,0.34281 0.2796,5.80674 0.1768,50.0303 -0.063,27.305 -0.1621,86.36 -0.2193,131.23333 -0.057,44.87333 -0.1475,81.86824 -0.2008,82.21091 -0.1354,0.86958 -0.6502,1.0932 -2.7744,1.20499 l -1.828,0.0962 -0.012,1.92424 c -0.016,2.51648 -0.019,2.53262 -0.4762,2.99015 -0.3873,0.38727 -0.554,0.39212 -12.684,0.36882 -6.7603,-0.013 -12.3204,-0.0517 -12.3557,-0.086 z m 24.0851,-3.3372 v -1.89225 l -77.0979,-0.12821 c -42.4039,-0.0705 -90.9845,-0.1282 -107.957,-0.1282 h -30.859 l 0.055,1.87614 0.055,1.87613 81.5879,0.0965 c 44.8733,0.0531 93.4292,0.11805 107.9019,0.14432 l 26.314,0.0478 z m 3.6779,-21.58351 c 0.065,-9.47208 0.1834,-68.07248 0.2633,-130.2231 l 0.1452,-113.00113 -3.1496,-10e-4 c -1.7323,-7.6e-4 -5.6101,-0.0581 -8.6172,-0.12749 l -5.4676,-0.12611 0.1276,4.38458 c 0.07,2.41152 0.1716,15.08951 0.2255,28.17332 0.054,13.08381 0.1395,26.77613 0.1903,30.42738 0.051,3.65125 0.093,19.60562 0.095,35.45416 v 28.81553 h 1.4494 c 2.1447,0 3.4164,0.66415 4.5631,2.38302 0.4235,0.63488 0.5285,1.01269 0.5291,1.9046 0,1.46629 -0.3312,2.19868 -1.4408,3.17538 -0.9876,0.86938 -2.1407,1.30071 -3.9917,1.4932 l -1.1039,0.11479 -0.051,55.35655 c -0.028,30.4461 -0.027,58.40314 0,62.12675 l 0.053,6.7702 0.4282,0.0796 c 0.2355,0.0438 3.8485,0.0712 8.0289,0.0609 l 7.6008,-0.0188 z m -17.881,10.53951 c -0.033,-3.62257 -0.093,-6.61921 -0.1327,-6.65919 -0.04,-0.04 -42.4209,-0.008 -94.1798,0.0708 l -94.1071,0.14353 v 6.41883 6.41882 l 36.7049,0.0491 c 20.1877,0.027 62.5956,0.0706 94.2398,0.0968 l 57.5348,0.0477 z m -190.0074,-45.84935 c 0.04,-28.68084 0.1325,-79.76947 0.2051,-113.53031 0.1097,-51.03227 0.083,-64.09824 -0.1567,-77.48316 -0.1587,-8.8549 -0.3566,-16.16759 -0.4396,-16.25042 -0.083,-0.0828 -3.8064,-0.15484 -8.2742,-0.16002 l -8.1233,-0.009 v 8.56288 c 0,13.76711 0.2812,96.80735 0.3851,113.72272 0.052,8.51958 0.1386,28.82515 0.1916,45.12348 0.2222,68.33634 0.3229,91.79992 0.3949,92.02906 0.06,0.19117 1.7392,0.23202 7.9102,0.19242 l 7.8338,-0.0503 z m 176.8699,36.72096 12.5875,-0.12796 -0.1278,-33.69044 c -0.07,-18.52974 -0.1279,-42.97732 -0.128,-54.32794 l -2e-4,-20.6375 h -7.2064 c -4.4846,0 -7.5767,-0.0794 -8.1867,-0.21022 -1.2397,-0.26588 -2.7612,-1.686 -3.0817,-2.87655 -0.5317,-1.97448 0.4137,-4.43782 2.0226,-5.27028 0.8254,-0.4271 0.2529,-0.40634 13.1329,-0.47641 l 3.3193,-0.0181 v -23.76439 -23.76439 h -9.4865 c -7.1218,0 -9.5441,0.0576 -9.7174,0.23091 -0.1718,0.17182 -0.2309,2.18105 -0.2309,7.85201 0,8.76889 0.2748,7.52519 -2.2884,10.3574 l -1.4225,1.5718 h -2.3394 c -1.563,0 -2.4161,-0.0766 -2.5703,-0.23091 -0.1537,-0.15364 -0.2309,-0.99464 -0.2309,-2.51313 v -2.28222 l -0.7106,0.0597 -0.7106,0.0597 -0.5247,2.09574 c -0.2886,1.15266 -0.6399,2.16878 -0.7807,2.25804 -0.4198,0.2661 -4.8484,0.20468 -5.2164,-0.0723 -0.2464,-0.18549 -0.3494,-0.71391 -0.4499,-2.30909 -0.1262,-2.00037 -0.1453,-2.06856 -0.5787,-2.06856 h -0.4481 l -0.053,3.31931 -0.053,3.31932 -0.8178,0.18128 c -0.4498,0.0997 -0.8178,0.28494 -0.8178,0.41164 0,0.12669 -0.1526,0.41881 -0.3392,0.64915 -0.2891,0.35711 -0.417,0.38916 -0.8682,0.2176 -0.2911,-0.11065 -0.6286,-0.4194 -0.7501,-0.68611 -0.1573,-0.34508 -0.3717,-0.48492 -0.7438,-0.48492 -0.2876,0 -0.6175,-0.11412 -0.7333,-0.2536 -0.1206,-0.14535 -0.2666,-1.62372 -0.342,-3.46363 l -0.1316,-3.21004 h -0.5474 c -0.3011,0 -0.5489,0.0649 -0.5506,0.14432 -0.02,0.91788 -0.3901,4.52425 -0.4793,4.66845 -0.067,0.10865 -1.129,0.19026 -2.4756,0.19026 h -2.3581 l -1.8743,-2.26099 -1.8744,-2.26098 0.065,-7.84129 0.065,-7.84129 -5.0096,-0.009 c -29.2521,-0.0542 -127.6767,-0.54314 -127.8252,-0.63497 -0.3342,-0.20653 -0.4216,14.59145 -0.5426,91.90145 l -0.1162,74.22765 80.9796,-1.7e-4 c 44.5388,-8e-5 86.6439,-0.0577 93.567,-0.12811 z m 17.9294,-110.5712 c 1.0306,-0.5133 1.9033,-1.50617 2.0345,-2.3148 0.1513,-0.93266 -0.2056,-1.73488 -1.1203,-2.51786 -0.8455,-0.72365 -1.9619,-0.97845 -4.0106,-0.91527 -0.6879,0.0212 -4.7143,0.066 -8.9477,0.0995 -10.2745,0.0814 -9.2695,0.003 -10.003,0.78066 -0.4904,0.51995 -0.6463,0.88391 -0.7475,1.74423 -0.1437,1.2231 0.1357,2.04121 0.9628,2.81893 0.4746,0.44634 0.5848,0.45872 5.0403,0.56661 2.5052,0.0607 7.1527,0.10396 10.3277,0.0962 5.1417,-0.0125 5.8483,-0.0517 6.4638,-0.35826 z m -44.4676,-36.69749 v -2.88636 h -1.6562 c -1.4311,0 -1.6403,0.0414 -1.5394,0.30437 0.064,0.16741 0.1168,1.46627 0.1168,2.88636 v 2.58199 h 1.5394 1.5394 z m -7.0414,0.33674 c 0.053,-0.34396 0.1332,-1.20986 0.179,-1.92424 l 0.083,-1.29886 h -1.8977 c -2.5523,0 -2.5342,0.0277 -2.4501,-3.73139 0.044,-1.96347 0.1368,-2.86702 0.3126,-3.04249 0.1989,-0.1985 2.8936,-0.26028 13.1606,-0.30172 11.3735,-0.0459 12.9646,-0.0167 13.364,0.24497 0.4434,0.29056 0.4534,0.36149 0.4534,3.2324 0,3.8659 0.05,3.79065 -2.5125,3.79065 h -1.9133 v 1.82803 1.82803 h 1.7082 1.7082 l 1.4862,-1.63704 1.4862,-1.63704 0.1057,-4.32811 0.1057,-4.32811 h -15.9039 -15.9039 v 4.01447 4.01446 l 1.5875,1.94863 1.5875,1.94862 1.5788,0.002 1.5788,0.002 z m 14.3576,-0.76969 c 0.1162,-0.4498 0.2494,-0.96934 0.296,-1.15455 0.047,-0.18521 0.1339,-0.50992 0.194,-0.72159 0.1049,-0.36978 0.017,-0.38485 -2.2369,-0.38485 h -2.3462 l 0.1203,0.60133 c 0.066,0.33073 0.1203,1.02345 0.1203,1.53939 v 0.93807 h 1.8206 1.8206 z m 7.5702,-5.85583 c 0.098,-1.7167 0.071,-2.28437 -0.115,-2.40235 -0.2984,-0.18947 -6.1497,-0.20093 -16.6475,-0.0326 l -7.9375,0.12726 v 2.17239 2.17239 l 1.2026,0.0683 c 0.6615,0.0376 6.1901,0.085 12.2859,0.1054 l 11.0831,0.0371 z m -25.8936,-22.43094 c 0.031,-9.12791 0.1051,-17.01228 0.1638,-17.52083 0.1338,-1.15938 0.9753,-2.3109 2.2743,-3.11214 l 0.9426,-0.5814 9.9689,0.0246 9.9689,0.0246 1.0355,0.50662 c 1.1356,0.5556 1.7911,1.3507 2.3973,2.90785 0.3565,0.91598 0.3814,1.76262 0.5177,17.65492 l 0.1432,16.6928 h 0.9675 0.9675 l -0.1241,-21.29979 -0.124,-21.29979 -0.6256,-0.64545 c -0.7006,-0.72283 -2.0818,-1.58981 -2.5328,-1.58981 -0.1626,0 -0.3882,0.1729 -0.5013,0.38422 -0.1131,0.21132 -0.5651,0.56758 -1.0044,0.79169 -0.7897,0.40292 -0.9143,0.40665 -11.1422,0.33405 l -10.3435,-0.0734 -0.493,-0.46317 c -0.2711,-0.25475 -0.493,-0.63209 -0.493,-0.83853 0,-0.91195 -2.3273,0.28248 -3.3096,1.69857 l -0.5302,0.76432 -0.01,4.52197 c 0,2.48709 -0.1044,9.13972 -0.2212,14.78364 -0.1572,7.60223 -0.1207,8.41034 -0.1942,10.64424 -0.071,0.91155 0.046,3.6121 0.036,6.11161 -9e-4,0.2375 -0.077,1.31048 -0.1531,3.34846 l -0.1058,2.8272 1.2309,-4e-4 1.2309,-4.1e-4 z m 26.1447,-0.11939 c -0.1374,-18.01011 -0.094,-17.2854 -1.1277,-18.74069 -0.8571,-1.2064 -1.1736,-1.23618 -14.0259,-1.31984 -7.1777,-0.0467 -7.2372,-0.0439 -7.924,0.38063 -0.3806,0.23524 -0.9579,0.73047 -1.2828,1.10051 l -0.5907,0.6728 v 4.2911 c 0,2.3601 -0.058,10.15027 -0.1278,17.31149 l -0.1278,13.02038 h 12.6671 12.6671 z m -15.0155,11.21566 c -2.5611,-0.61993 -5.066,-2.59159 -6.2391,-4.91109 -1.9899,-3.93436 -1.2332,-8.47734 1.9222,-11.53949 0.4277,-0.41511 0.8971,-0.75476 1.0431,-0.75476 0.146,0 0.2655,-0.0851 0.2655,-0.18918 0,-0.29967 1.8023,-1.13353 3.1232,-1.44495 3.3289,-0.78486 6.5689,0.14304 9.0206,2.58339 1.9591,1.95012 2.8653,4.11447 2.8653,6.84393 0,2.72945 -0.9062,4.8938 -2.8653,6.84392 -2.4606,2.44928 -5.7761,3.38135 -9.1355,2.56823 z m 3.7484,-1.04147 c 4.0185,-0.74513 7.0978,-4.37666 7.0978,-8.37068 0,-5.05578 -4.8543,-9.23146 -9.7421,-8.38027 -2.9202,0.50851 -5.0476,2.10091 -6.3632,4.76293 -0.714,1.44467 -0.7318,1.53247 -0.7318,3.60736 0,2.0471 0.026,2.18062 0.6937,3.56982 1.1698,2.43366 3.2188,4.09901 5.8194,4.72983 1.2552,0.30446 1.9297,0.3214 3.2262,0.081 z m 34.766,-2.165 -0.055,-1.77993 -9.1619,-0.05 -9.1618,-0.05 -0.1226,0.89462 c -0.1596,1.16389 -0.1567,2.47448 0.01,2.63686 0.071,0.0706 4.2735,0.12828 9.3398,0.12828 h 9.2115 z m -53.0682,-0.22202 v -1.80951 l -1.9723,-0.10552 c -2.6431,-0.1414 -130.0354,-0.95311 -130.1591,-0.82934 -0.053,0.0534 -0.035,0.96994 0.04,2.03682 l 0.1376,1.93979 4.2566,0.0205 c 7.9153,0.0381 111.7599,0.49359 119.7593,0.52531 l 7.9375,0.0315 z m 53.3015,-10.50563 v -7.69697 h -9.7174 -9.7174 v 7.58664 c 0,7.06358 0.023,7.59272 0.3367,7.67465 0.1852,0.0484 4.5581,0.0981 9.7174,0.11032 l 9.3807,0.0223 z m -53.236,2.66278 c 0.07,-2.55714 0.1269,-5.96717 0.1269,-7.57785 v -2.9285 l -10.0541,-0.11642 c -5.5298,-0.064 -26.2034,-0.16105 -45.9413,-0.2156 -19.7379,-0.0546 -45.2173,-0.15504 -56.6208,-0.22331 l -20.7338,-0.12411 v 7.53271 7.53272 l 9.4769,0.0175 c 5.2123,0.01 29.5227,0.16989 54.0231,0.35614 24.5005,0.18625 50.1825,0.35155 57.0712,0.36734 l 12.5249,0.0287 z m 52.4254,-13.29422 -0.055,-1.77993 -9.1882,-0.05 -9.1883,-0.05 v 1.70161 c 0,0.93589 0.058,1.75934 0.1283,1.8299 0.071,0.0705 4.2302,0.12828 9.2436,0.12828 h 9.1153 z m -52.3396,-0.28864 -0.055,-1.87614 -16.0674,-0.15196 c -35.1959,-0.33288 -116.7128,-0.84599 -116.8302,-0.73539 -0.1088,0.10253 0.1479,4.05815 0.2708,4.17323 0.058,0.0547 86.8429,0.38614 113.1508,0.43215 l 19.5862,0.0342 z m 53.1043,-10.65358 -0.05,-7.91153 -13.6621,0.0299 c -10.0815,0.022 -172.3534,0.75524 -172.6527,0.78011 -0.026,0.002 -0.048,3.12127 -0.048,6.93127 v 6.92727 l 1.78,-9.6e-4 c 1.9325,-10e-4 70.8851,0.47884 108.2867,0.75364 17.4083,0.1279 23.2224,0.11528 23.3285,-0.0506 0.078,-0.12154 0.1427,-2.17794 0.1443,-4.56977 v -4.34878 l 0.5469,-0.75046 c 1.3061,-1.79196 2.837,-2.8094 4.2272,-2.8094 0.7157,0 1.191,0.40408 1.191,1.01256 0,0.2692 0.2816,0.34276 1.6837,0.43994 1.8733,0.12983 6.6281,0.17873 14.2616,0.14668 l 5.0733,-0.0213 0.6169,-0.67348 c 0.5054,-0.55181 0.7534,-0.67316 1.3729,-0.67168 0.9946,0.002 2.4942,0.86918 3.5202,2.03479 l 0.7957,0.90395 v 4.57535 c 0,2.51645 0.053,4.71232 0.1168,4.87973 0.1043,0.27198 1.149,0.30437 9.8157,0.30437 h 9.699 z m -87.5071,-9.98618 c 48.1013,-0.21584 87.6507,-0.43491 87.8876,-0.48684 l 0.4307,-0.0944 -0.096,-4.66318 c -0.053,-2.56474 -0.1491,-10.18334 -0.2134,-16.93021 l -0.1167,-12.26705 -12.725,-1.9e-4 c -6.9988,-10e-5 -30.0989,-0.0577 -51.3336,-0.12803 l -38.6086,-0.12785 0.027,6.33372 c 0.03,6.95707 -0.011,7.27304 -1.0825,8.31018 -1.322,1.27945 -1.2156,1.26616 -11.3013,1.41128 -5.0271,0.0723 -21.4152,0.14816 -36.4181,0.1685 -26.4098,0.0358 -27.2976,0.0254 -27.8988,-0.32568 -0.9983,-0.58303 -1.674,-1.72424 -1.9182,-3.23957 -0.2705,-1.67928 -0.2693,-1.57959 -0.085,-7.06259 l 0.1539,-4.57007 h -3.4776 -3.4776 v 1.97235 c 0,1.08479 0.1304,8.29348 0.2845,16.01932 0.1541,7.72583 0.2821,14.50157 0.2843,15.05719 v 1.01023 l 6.1095,0.003 c 3.3602,0.001 45.4651,-0.17394 93.5663,-0.38977 z m -30.9503,-22.63406 c 2.0489,-0.64276 3.9831,-2.64599 4.6897,-4.85707 0.6927,-2.16773 0.055,-4.96163 -1.5328,-6.71957 -1.3489,-1.49315 -3.5745,-2.54007 -5.3998,-2.54007 -2.6422,0 -5.4134,1.84505 -6.6126,4.40267 -0.4366,0.93117 -0.507,1.3354 -0.5063,2.90945 7e-4,1.62967 0.062,1.95286 0.5639,2.97838 1.6448,3.36001 5.2651,4.93449 8.7979,3.82621 z m 10.8849,0.12793 c 1.4256,-0.8692 0.8249,-2.93971 -0.8528,-2.93971 -0.5865,0 -1.5954,0.98945 -1.5954,1.56458 0,0.63272 1.018,1.65667 1.7318,1.74182 0.053,0.006 0.3753,-0.1587 0.7164,-0.36669 z m -46.321,-0.6825 c 5.0271,-0.0561 11.198,-0.10813 13.713,-0.11567 l 4.5729,-0.0137 -0.051,-5.89858 -0.051,-5.89858 -13.4697,0.0715 c -7.4083,0.0393 -16.5003,0.1259 -20.2045,0.19242 l -6.7349,0.12094 -0.1339,5.67651 c -0.074,3.12208 -0.096,5.7909 -0.049,5.93071 0.069,0.20688 1.3117,0.23393 6.6764,0.14531 3.6252,-0.0599 10.7044,-0.15477 15.7314,-0.21085 z m 46.7739,-10.66097 c 0.3839,-0.38389 0.5625,-0.75516 0.5625,-1.16935 0,-0.84672 -0.9031,-1.73182 -1.7671,-1.73182 -0.7416,0 -1.6253,0.70735 -1.8117,1.4503 -0.1233,0.49096 0.2805,1.31048 0.8704,1.76669 0.5638,0.43601 1.5374,0.29272 2.1459,-0.31582 z"
           id="path562"
           sodipodi:nodetypes="sssscssscccccssssscssssscssscsssssccsscccsscccscsscsssccsscsscsccssccssscccsscscsssccssssscccccscssssscccsssscssscccssssscccsssssssscsssscccccssscsscssssssssssssccsssccccsscssssssscccccccccccccccccsscsscsscccsssscccsscscsscccssscccccssssscsssccscssccccssssscsccccssssssssssssssssssssccccscsccccssccssccccccsssccsscsssccccsscsccccscsccccssssccccssscsssccssssscssscscsccsscsscsscssssssscccsscccssssssssssssssssscccsscccsssssssss" />
        <path
           id="path598"
           style="fill:#2f2929;fill-opacity:1;stroke-width:2.6828"
           sodipodi:type="inkscape:offset"
           inkscape:radius="2.000025"
           inkscape:original="M 5626.7031 -3522.8262 L 5627.3496 -3396.4141 C 5627.7046 -3326.8868 5628.458 -3126.675 5629.0254 -2951.5 C 5629.5928 -2776.325 5630.3228 -2612.6604 5630.6465 -2587.8008 C 5631.1758 -2547.144 5631.3986 -2542.5571 5632.8672 -2542.166 C 5633.7651 -2541.9269 5646.7023 -2541.6792 5661.6172 -2541.6152 L 5688.7363 -2541.5 L 5689.3789 -2615.25 C 5689.7321 -2655.8125 5690.0737 -2863.6 5690.1387 -3077 C 5690.245 -3425.3523 5689.7609 -3519.0732 5687.8457 -3520.9883 C 5687.5257 -3521.3084 5673.6385 -3521.8516 5656.9844 -3522.1973 L 5626.7031 -3522.8262 z "
           d="m 5626.7441,-3524.8262 a 2.000225,2.000225 0 0 0 -2.041,2.0098 l 0.6465,126.4121 c 0.355,69.5221 1.1084,269.736 1.6758,444.9102 0.5674,175.1765 1.2964,338.784 1.6211,363.7187 0.2647,20.3311 0.4506,31.6339 0.7597,37.9883 0.1546,3.1772 0.3256,5.0966 0.6114,6.4551 0.1429,0.6792 0.3017,1.2352 0.6465,1.8007 0.3447,0.5656 1.0402,1.1265 1.6875,1.2989 a 2.000225,2.000225 0 0 0 0,0 c 0.6478,0.1725 0.7678,0.1206 1.2676,0.1523 0.4997,0.032 1.1489,0.061 1.9453,0.09 1.5928,0.059 3.7683,0.114 6.3809,0.164 5.225,0.1001 12.196,0.1789 19.6621,0.211 l 27.1191,0.1152 a 2.000225,2.000225 0 0 0 2.0078,-1.9824 l 0.6426,-73.75 c 0.3536,-40.6108 0.6948,-248.3659 0.7598,-461.7676 0.053,-174.1771 -0.042,-284.6949 -0.3887,-351.918 -0.1736,-33.6115 -0.4091,-56.3978 -0.7227,-70.9199 -0.1567,-7.261 -0.3322,-12.4525 -0.5312,-15.9258 -0.1,-1.7366 -0.2034,-3.0379 -0.3223,-3.9961 -0.059,-0.479 -0.1203,-0.8678 -0.2051,-1.2304 -0.085,-0.3626 0.068,-0.6351 -0.7089,-1.4121 -0.6243,-0.6245 -0.7785,-0.4955 -0.9297,-0.5391 -0.1513,-0.044 -0.2521,-0.062 -0.3555,-0.08 -0.2067,-0.036 -0.4093,-0.06 -0.6562,-0.086 -0.494,-0.052 -1.1428,-0.1008 -1.961,-0.1524 -1.6364,-0.1032 -3.9324,-0.2124 -6.7383,-0.3222 -5.6118,-0.2198 -13.2565,-0.4422 -21.5937,-0.6153 z"
           transform="matrix(0.26458333,0,0,0.26458333,-442.27762,226.33808)" />
      </g>
      <path
         id="path599"
         style="fill:#2f2929;fill-opacity:1;stroke-width:0.535853"
         d="m 806.23019,-857.75012 c -0.15639,1.3e-4 -0.28977,0.1134 -0.31522,0.2677 l -0.12404,0.7493 c -0.0737,0.4459 -0.13073,1.20428 -0.13073,1.74977 l -0.003,0.94827 c 0,0.17687 0.14298,0.32043 0.31988,0.32038 h 9.18806 9.18755 c 0.17669,5e-5 0.31993,-0.14319 0.31988,-0.31988 v -1.56837 -1.5689 c 1.1e-4,-0.16629 -0.12729,-0.30493 -0.293,-0.31885 l -1.52807,-0.1292 c -0.4562,-0.0385 -1.67011,-0.0685 -3.31452,-0.092 -1.64441,-0.0236 -3.70107,-0.0382 -5.77432,-0.0383 z"
         sodipodi:nodetypes="ccscccccccccsssc" />
    </g>
    <path
       id="path2"
       style="font-size:35.843px;font-family:'AmmanV3 Serif';-inkscape-font-specification:'AmmanV3 Serif';fill:#1a1a1a;stroke-width:0.590119;filter:url(#filter3)"
       d="m 179.89844,99.705078 c -4.07834,1.521052 -8.15495,3.048302 -12.23242,4.572262 0.8771,4.01174 1.66384,8.11143 2.72265,12.03907 -1.1895,-1.13549 -2.96195,-1.11627 -4.44551,-1.60084 -1.21819,-0.29955 -2.43457,-0.60664 -3.65214,-0.90893 -1.55923,0.88732 -2.78633,2.21611 -4.01954,3.49219 -0.70622,0.076 -1.5064,0.19483 -2.16406,0.12109 -1.76383,-4.49426 -6.53543,-7.47183 -11.32497,-7.35858 -3.28725,-0.0582 -6.78275,0.48965 -9.47581,2.49725 -1.49647,1.31537 -2.19678,3.30831 -2.38672,5.2461 -1.72613,-0.0438 -3.48583,0.22735 -5.09961,0.86914 -0.0432,4.77039 0.0812,9.5477 -0.0994,14.31351 -0.0889,0.74392 -0.26091,1.43007 -0.41237,2.20211 1.73862,1.13219 3.87677,1.33416 5.89634,1.14997 2.27186,-0.0378 4.55758,-0.15964 6.7814,-0.65583 0.0292,0.68378 0.43935,1.54011 1.26093,1.37393 3.34346,0.0338 6.67965,-0.23747 10.00274,-0.58096 1.00084,2.104 2.64846,3.77281 4.19817,5.47228 1.02681,1.15527 2.05572,2.30869 3.08113,3.46522 4.58729,-2.97742 9.17208,-5.95872 13.75976,-8.93554 -0.58516,-0.49897 0.89825,-0.19286 1.25196,-0.32642 0.6485,-0.10247 0.76141,0.85839 1.17017,1.23188 0.44734,0.67203 0.89279,1.34533 1.34154,2.01641 4.44097,-1.14437 8.88152,-2.29034 13.32227,-3.43555 -0.32003,-0.89933 0.35227,0.60334 0.51019,0.8609 1.72561,3.3902 3.45251,6.77974 5.17731,10.17035 2.83491,-1.68471 5.91403,-3.36261 9.3125,-3.28711 1.95725,-0.0649 3.88417,-1.22854 4.60701,-3.09222 0.93862,-2.12596 0.0577,-4.48248 0.11111,-6.62873 0.15899,-1.50112 0.77732,-2.91903 1.1402,-4.38083 0.2287,-0.5702 -0.79334,-0.66628 -1.10214,-1.0328 -0.42779,-0.38354 -1.22342,-0.53127 -1.41282,-1.06765 -0.91893,-7.03731 -0.96198,-14.11058 -1.42148,-21.18448 -0.47847,-1.09192 -1.82944,-1.12228 -2.75156,-1.64312 -1.49053,-0.61142 -2.97982,-1.22585 -4.4711,-1.8354 -3.8657,1.46012 -7.73107,2.92114 -11.59766,4.37891 0.0954,0.42138 0.39678,0.95369 -0.26562,0.86914 -0.35027,-0.17533 -0.16253,-1.16109 -0.30541,-1.64884 -0.11851,-1.19711 -0.23491,-2.39442 -0.35475,-3.5914 -2.14597,-1.07524 -4.29222,-2.14993 -6.4375,-3.22656 -0.0716,0.02669 -0.14323,0.05339 -0.21484,0.08008 z m 11.38281,32.007812 c -0.12802,0.50156 -0.86579,0.49509 -1.22632,0.80382 -0.50418,0.17654 -1.17166,0.74791 -1.57789,0.68697 -0.29009,-0.56832 0.77645,-0.49998 1.08485,-0.81674 0.60176,-0.26874 1.18409,-0.5765 1.76819,-0.88108 -0.0163,0.069 -0.0326,0.13802 -0.0488,0.20703 z" />
    <path
       id="path3"
       style="font-size:38.444px;font-family:'AmmanV3 Serif';-inkscape-font-specification:'AmmanV3 Serif';fill:#1a1a1a;stroke-width:0.085792;filter:url(#filter4)"
       d="m 48.308594,104.48242 c -4.183873,0.82371 -8.346317,1.76187 -12.515625,2.66016 1.092288,1.87344 1.867257,3.91962 2.328125,6.03711 -1.311755,-0.0673 -2.636796,0.12264 -3.876953,0.55469 -2.879965,-0.94572 -5.903181,-0.061 -8.748047,0.56445 -1.212237,-0.25149 -2.300195,-0.97495 -3.569395,-0.99689 -1.762705,-0.26294 -3.586483,-0.099 -5.280215,0.45197 -3.058509,-1.05704 -6.234882,0.11648 -9.2803129,0.59087 -2.0311262,0.36749 -4.0313543,1.85347 -4.3144109,4.00809 -0.6603125,2.66111 -0.1766244,5.51057 1.0236207,7.93938 0.06941,1.22209 -0.3505419,2.35242 -0.4216431,3.58635 -0.5746707,4.0281 -1.4533757,8.09237 -1.0515479,12.17791 0.5319465,2.39902 1.4400247,4.86319 3.2357007,6.6056 2.241679,1.88288 5.4038154,1.88 8.1250004,1.29883 2.135523,-0.42462 4.270805,-0.89234 6.384208,-1.3964 1.352852,-0.57061 1.967131,-2.23709 1.55457,-3.59987 -0.06245,-0.9352 0.06642,-1.86931 0.06903,-2.80451 0.550642,-0.18707 1.05899,-0.65478 1.580412,-0.76581 2.616195,1.13297 5.516989,2.27774 8.403146,1.52516 2.311159,-0.42878 4.534873,-1.0784 6.866051,-1.37263 0.403846,-0.53073 0.847443,-0.0173 1.304783,0.12253 2.413493,1.07398 5.148857,1.90478 7.779531,1.24422 1.461406,-0.24775 2.996985,-0.97978 4.449607,-0.30532 1.940211,0.63015 4.04506,0.78679 6.020767,0.22177 0.946187,-0.17841 1.993322,-0.71906 2.908453,-0.18499 2.691807,1.0321 5.597058,0.30007 8.294102,-0.30239 0.912647,-0.27462 1.798385,0.056 2.641354,0.37883 1.814488,0.63943 3.770019,0.51346 5.617029,0.0968 1.761264,-0.39397 3.534504,-0.77725 5.264024,-1.28493 1.391711,-0.54975 2.715923,-1.98168 2.38246,-3.56468 -1.226547,-2.3883 -1.398181,-5.1279 -1.296289,-7.76328 0.01203,-5.82452 -0.06805,-11.6531 0.04781,-17.47505 0.07508,-0.696 0.201422,-1.38534 0.301214,-2.07808 -3.17623,-0.81005 -6.587921,-1.25286 -9.772518,-0.23733 -2.178581,0.42518 -4.358826,0.84117 -6.539982,1.25296 -0.02866,0.6175 -0.08714,1.2336 -0.09961,1.85156 -2.369447,-0.64574 -4.911601,-0.31171 -7.185547,0.53711 -1.524449,-0.69357 -3.248657,-0.86204 -4.902344,-0.68555 -0.487893,-3.03321 -1.614781,-6.30881 -4.332052,-8.03778 -1.01294,-0.6119 -2.210879,-0.92627 -3.39451,-0.85089 z m -9.767578,27.29297 c 0.427928,0.68378 -0.712572,0.12916 0,0 z" />
    <path
       id="path601"
       style="fill:#ffffff;fill-opacity:1;stroke:none;stroke-width:0.762254"
       d="m 115.10133,97.117238 c -6.5073,0.0131 -13.0156,-0.038 -19.521897,0.0872 -5.7307,0.52681 -11.0916,4.269222 -13.5429,9.502712 -1.0347,2.15063 -1.5234,4.5507 -1.6329,6.91039 -0.084,1.51265 0.027,3.02598 0,4.53943 0.01,5.34773 -0.057,10.69809 0.1122,16.04355 0.2187,2.02693 0.8452,4.01182 1.7802,5.79992 1.911,3.67529 5.184,6.66366 9.1036,8.05468 1.2849,0.47629 2.5963,0.7564 3.958,0.91879 1.4972,0.17679 3.0513,0.18614 4.572596,0.12994 5.834601,-0.0102 11.671101,0.0622 17.503701,-0.10926 6.0396,-0.63514 11.576,-4.82801 13.7565,-10.5064 0.7924,-1.98043 1.125,-4.1008 1.2012,-6.21478 0.06,-1.4382 -0.039,-2.87632 -0.011,-4.31498 -0.01,-5.32066 0.065,-10.64424 -0.1199,-15.96231 -0.6228,-5.72529 -4.455,-10.99243 -9.7218,-13.357052 -1.4393,-0.64405 -2.9928,-1.10496 -4.5566,-1.33238 -0.9409,-0.13909 -1.9166,-0.20185 -2.8803,-0.18944 z" />
    <path
       id="path602"
       style="font-size:35.843px;font-family:'AmmanV3 Serif';-inkscape-font-specification:'AmmanV3 Serif';fill:#f2f2f2;stroke-width:0.590119"
       d="m 168.89233,104.9486 c 0.9909,4.56597 1.8485,9.17254 3.2634,13.63294 -0.652,0.0184 -1.3041,0.0362 -1.956,0.0546 -0.049,-0.81563 -0.4139,-1.73889 -1.2383,-2.03806 -1.0963,-0.37987 -2.2489,-0.55456 -3.3619,-0.8765 -1.04,-0.2591 -2.08,-0.51819 -3.1201,-0.77729 -1.447,0.86015 -2.5198,2.18458 -3.704,3.35244 -1.1158,0.19491 -2.2512,0.20359 -3.3791,0.27196 -1.0941,-3.56606 -4.2477,-6.35483 -7.8748,-7.14521 -1.7198,-0.38588 -3.4785,-0.35679 -5.2292,-0.22738 -2.0029,0.20481 -4.0393,0.73965 -5.7965,1.77204 -0.956,0.64418 -1.676,1.68644 -2.065,2.78849 -0.3517,0.93747 -0.385,1.94734 -0.5757,2.92154 -0.01,0.24263 -0.3757,0.0808 -0.545,0.14197 -1.4903,0.0623 -3.0106,0.0765 -4.4319,0.6089 -0.01,4.23029 0,8.46105 -0.017,12.69104 -0.044,0.84209 -0.1587,1.68113 -0.3533,2.50188 1.1187,0.6021 2.4214,0.79952 3.6779,0.67612 2.8678,-0.0218 5.7621,-0.12311 8.55,-0.87273 0.1405,0.52436 0.2797,1.0491 0.4198,1.57361 3.5842,0.0451 7.1528,-0.26948 10.7103,-0.6494 0.768,1.55879 1.667,3.08705 2.9413,4.28922 1.3031,1.46394 2.6061,2.92789 3.9093,4.39183 3.9948,-2.59493 7.9897,-5.18988 11.9846,-7.78482 -0.2393,-0.33009 -0.4785,-0.66035 -0.7183,-0.99023 1.4848,-0.0641 2.9674,-0.11411 4.4453,-0.21097 0.6846,1.05618 1.3869,2.10068 2.0881,3.14579 3.8345,-0.98928 7.6688,-1.97854 11.5033,-2.96783 -0.3171,-0.97448 -0.635,-1.9487 -0.9515,-2.92333 1.9139,-0.73507 3.7849,-1.6471 5.5209,-2.76333 0.1776,0.39958 0.2732,0.88523 0.029,1.27947 -0.2202,0.57862 -0.3397,1.18956 -0.415,1.80245 -0.8679,0.43823 -1.7356,0.87689 -2.6034,1.31529 1.9674,3.86382 3.9347,7.72765 5.902,11.59147 2.3101,-1.34686 4.7953,-2.57442 7.4993,-2.80318 1.1691,-0.089 2.4301,-0.0317 3.461,-0.68423 1.4027,-0.8669 2.0757,-2.62713 1.8831,-4.22987 -0.1622,-1.44993 -0.3376,-2.90548 -0.3184,-4.36715 0.3267,-1.22312 0.6984,-2.43327 1.0498,-3.64952 -0.7729,-0.48493 -1.5451,-0.97099 -2.3185,-1.45522 -0.9928,-7.12498 -1.0495,-14.338 -1.4844,-21.50287 0.066,-0.27806 -0.1135,-0.38181 -0.3551,-0.44211 -1.9533,-0.80348 -3.9065,-1.60697 -5.8599,-2.41045 -3.4577,1.30644 -6.9153,2.61287 -10.3731,3.91931 0.048,0.32601 0.095,0.65199 0.1414,0.97803 -0.9178,0.0979 -1.814,0.33362 -2.685,0.63361 -0.196,-1.99169 -0.3919,-3.98342 -0.5878,-5.97512 -1.8345,-0.91943 -3.6691,-1.83888 -5.5037,-2.75831 -3.719,1.3904 -7.4382,2.78079 -11.1573,4.17118 z" />
    <path
       d="m 84.503833,138.37385 c -0.8019,-1.67224 -1.2805,-3.49887 -1.3667,-5.35391 -0.036,-6.10307 -0.014,-12.20693 -0.014,-18.31033 -0.049,-1.08337 0.024,-2.17217 0.2165,-3.23929 -2.6295,-0.60912 -5.338,-0.92689 -7.9484,-0.0985 -2.0497,0.41582 -4.1109,0.78562 -6.165,1.18299 -0.08,0.74132 -0.013,1.51127 -0.107,2.21104 -0.7101,0.16137 -1.3423,-0.41378 -2.0626,-0.40098 -2.0853,-0.33702 -4.2331,0.0419 -6.1721,0.84126 -1.7414,-0.93251 -3.8148,-1.00629 -5.7222,-0.64647 -0.43,-2.86821 -1.125,-6.01902 -3.4738,-7.95699 -0.9145,-0.72499 -2.0902,-1.1279 -3.2603,-1.074 -3.6951,0.73369 -7.3726,1.56086 -11.0566,2.35324 1.1139,2.02275 1.6279,4.29576 2.1042,6.53537 -1.7324,-0.37641 -3.5719,-0.20827 -5.2219,0.43287 -2.8421,-1.07964 -5.8714,-0.0702 -8.6978,0.51905 -1.0934,0.005 -1.9826,-0.80966 -3.0672,-0.90503 -1.9385,-0.41412 -3.9899,-0.26977 -5.8535,0.40287 -2.7182,-1.09376 -5.6265,-0.0805 -8.357,0.39718 -1.6885,0.19639 -3.6455,1.03284 -4.0768,2.84952 -0.7104,2.49022 -0.4421,5.24858 0.7896,7.53097 0.4675,1.05936 -0.09,2.16642 -0.1246,3.25221 -0.5767,4.21922 -1.5346,8.45395 -1.2749,12.73696 0.3636,1.99375 1.151,3.93299 2.3121,5.59312 1.435,1.74735 3.8602999,2.21081 6.0081,1.96082 2.634,-0.24205 5.1721,-1.08183 7.7571,-1.49568 0.937,-0.26782 1.5217,-1.30389 1.2122,-2.23915 -0.1781,-1.31431 0.1108,-2.64239 0.013,-3.98523 0.8773,-0.31993 1.6918,-0.79046 2.4715,-1.30032 2.5205,1.02561 5.1953,2.40041 7.9982,1.78312 2.2793,-0.37492 4.5153,-1.07325 6.7945,-1.38025 0.3688,0.0664 0.6565,-0.2404 0.7401,-0.57336 2.5506,1.03734 5.1925,2.48157 8.043,2.00107 1.5245,-0.18568 3.0027,-0.79542 4.5451,-0.76702 1.6432,0.49097 3.3243,1.11887 5.0691,0.83746 1.4481,-0.11526 2.8477,-0.72112 4.2798,-0.77993 1.5443,0.81833 3.3421,0.97871 5.0504,0.70892 1.6132,-0.21001 3.1865,-0.75652 4.8071,-0.85397 1.4825,0.34895 2.8996,1.1103 4.4676,0.9618 2.3078,-0.0685 4.5007,-0.89204 6.7559,-1.30277 1.1969,-0.27345 2.5151,-1.07115 2.5873,-2.42862 z m -46.0392,-6.53157 c 0.034,-7.4e-4 0.076,0.005 0.1284,0.0171 -0.051,0.54383 -0.4614,-0.01 -0.1284,-0.0171 z"
       style="font-size:38.444px;font-family:'AmmanV3 Serif';-inkscape-font-specification:'AmmanV3 Serif';fill:#ffffff;stroke-width:0.085792"
       id="path603" />
    <path
       id="path604"
       style="fill:#dccdc1;fill-opacity:1;stroke-width:0.762254"
       d="m 97.242733,100.61735 h 18.298997 c 7.394,0 13.3464,5.95249 13.3464,13.34639 v 18.29909 c 0,7.39388 -5.9524,13.34637 -13.3464,13.34637 H 97.242733 c -7.3939,0 -13.3465,-5.95249 -13.3465,-13.34637 v -18.29909 c 0,-7.3939 5.9526,-13.34639 13.3465,-13.34639 z" />
    <g
       id="g618"
       transform="matrix(0.36739102,0,0,0.36739102,-700.00087,-212.71968)"
       style="stroke-width:2.7219">
      <path
         d="m 2229.7166,934.69109 c -0.3239,0 -0.6489,0.0149 -0.9726,0.0194 -4.381,0.406 -9.0735,-0.51249 -13.155,1.50885 -0.9653,1.0666 -1.842,2.19258 -2.6474,3.36343 l -1.8865,12.23143 8.3562,3.48232 13.8277,-2.88435 0.4976,-5.37271 -5.0743,-4.87511 z"
         style="font-size:38.444px;font-family:'AmmanV3 Serif';-inkscape-font-specification:'AmmanV3 Serif';fill:#52796f;fill-opacity:1;stroke-width:1.88417"
         id="path605" />
      <path
         d="m 2232.5435,887.8051 -14.525,2.78532 -0.1005,7.85968 -0.1005,0.49773 h -6.8642 l -1.7901,6.1674 6.8644,7.06366 -0.353,3.42222 c 2.3686,-0.53488 4.8337,-0.80932 7.1988,-1.18192 2.9741,0.0671 5.949,0.25117 8.9253,0.41749 l 0.4433,-4.24986 8.4563,-2.58739 -0.6956,-9.0516 h -6.1688 l 2.0898,-10.44574 z"
         style="font-size:38.444px;font-family:'AmmanV3 Serif';-inkscape-font-specification:'AmmanV3 Serif';fill:#52796f;fill-opacity:1;stroke-width:1.88417"
         id="path608" />
      <path
         d="m 2186.8135,910.58399 c -0.4059,5.53735 -1.1022,11.10112 -1.7169,16.65757 0.5447,-0.39362 1.0465,-0.78962 1.506,-1.18906 0.4912,2.31622 1.088,4.8068 1.7897,7.47399 0.7721,2.73728 1.6149,5.4407 2.5274,8.10789 0.9123,2.7373 1.8601,5.33287 2.8426,7.78946 1.0529,2.45656 2.1056,4.59783 3.1581,6.42267 l 7.0539,-1.15747 c 1.6846,-4.28138 3.3685,-8.1066 5.0529,-11.47555 1.7547,-3.29886 3.6499,-6.03673 5.6855,-8.21261 1.1932,-0.5614 2.4916,-1.01723 3.8954,-1.36834 0.7524,-0.15035 6.1121,-0.29129 11.1946,-0.42166 h 17.3101 c 0.3507,0 0.5966,-0.52623 0.7371,-1.5791 0.2109,-1.12299 0.3156,-3.3691 0.3156,-6.73806 0,-5.54481 -0.3509,-8.31731 -1.0527,-8.31731 h -10.542 l -13.2253,-0.73576 c -1.9653,0.2106 -3.9656,0.52546 -6.0012,0.94653 -1.9651,0.35094 -3.6847,0.80677 -5.1588,1.36834 -1.1933,1.40368 -2.3506,3.12359 -3.474,5.15896 -1.1228,2.0355 -2.2805,4.59798 -3.4737,7.68624 -0.6317,-1.47394 -1.2642,-3.15926 -1.8959,-5.05426 -0.5616,-1.89515 -1.1224,-3.89547 -1.6839,-6.00108 -0.5615,-2.10547 -1.0877,-4.24524 -1.5792,-6.42112 -0.4211,-2.24597 -0.8079,-4.38723 -1.1589,-6.42259 l -5.8948,-0.63107 c -1.3336,1.12299 -2.8777,2.21002 -4.6328,3.2629 -0.517,0.28967 -1.0432,0.5729 -1.5788,0.85049 z"
         style="letter-spacing:-2.3708px;word-spacing:0px;fill:#555b6e;fill-opacity:1;stroke-width:8.41074"
         id="path609" />
      <path
         d="m 2154.7245,872.35805 -13.0545,5.15761 c 0.6315,4.7728 1.4742,9.72101 2.5272,14.84462 1.0527,5.0535 2.3152,10.03766 3.7894,14.95065 1.4735,4.84306 3.1589,9.51084 5.0541,14.00278 1.8952,4.49194 4.8465,8.24751 7.1629,11.89717 0.1581,0 0.3051,-0.0149 0.4445,-0.033 0.042,0.0224 0.084,0.033 0.1313,0.0313 l 4.7045,-0.16781 c 0.6178,-5.62743 1.0904,-11.27369 1.6621,-16.91426 l -2.9888,0.27668 -0.061,-0.0372 c -0.842,-1.75481 -1.5783,-4.31727 -2.21,-7.68624 -0.6317,-3.3691 -1.1939,-7.05321 -1.6853,-11.05384 -0.4912,-4.00076 -0.9472,-8.1076 -1.3682,-12.31897 -0.3509,-4.28134 -0.7018,-8.17547 -1.0529,-11.68492 z"
         style="letter-spacing:-2.3708px;word-spacing:0px;fill:#555b6e;fill-opacity:1;stroke-width:8.41074"
         id="path615" />
      <g
         id="g617"
         transform="matrix(2.7754685,0,0,2.7754685,-1347.4711,619.43541)"
         style="fill:#52796f;fill-opacity:1;stroke-width:3.03039">
        <path
           d="m 1271.8593,91.245183 -4.8746,1.075387 0.9317,4.480346 0.7886,1.326534 4.839,-1.039729 -0.8604,-4.552177 z"
           style="font-size:38.444px;font-family:'AmmanV3 Serif';-inkscape-font-specification:'AmmanV3 Serif';fill:#52796f;fill-opacity:1;stroke-width:0.678866"
           id="path616" />
        <path
           d="m 1270.5328,100.34954 -5.2328,1.03921 -0.1436,1.90014 1.7564,2.9745 -0.7167,7.30084 h 0.036 l -0.9679,6.27249 3.0468,1.2547 4.9465,-1.03973 0.1793,-1.93528 -1.8283,-1.75648 0.3943,-2.7957 h -0.036 l 0.9317,-8.5912 -1.2185,-4.2292 z"
           style="font-size:38.444px;font-family:'AmmanV3 Serif';-inkscape-font-specification:'AmmanV3 Serif';fill:#52796f;fill-opacity:1;stroke-width:0.678866"
           id="path617" />
      </g>
    </g>
    <path
       id="path618"
       style="font-size:35.843px;font-family:'AmmanV3 Serif';-inkscape-font-specification:'AmmanV3 Serif';fill:#555b6e;fill-opacity:1;stroke-width:0.590119"
       d="m 179.72683,106.70466 -4.5441,1.69991 c 0.5319,2.63634 1.1214,5.08745 1.7689,7.35374 0.6706,2.26635 1.3646,4.16308 2.0815,5.68936 -0.2312,0.32376 -0.4511,0.65886 -0.6591,1.00575 -0.185,0.32378 -0.3701,0.67077 -0.5551,1.04075 -0.7632,0.11565 -1.5146,0.21957 -2.2547,0.31209 -0.7168,0.0926 -1.3667,0.21522 -2.0814,0.21522 -0.8982,0 -3.0575,0.0489 -3.885,0.0489 l -1.1798,0.0479 c -0.5086,0.0694 -1.029,0.13864 -1.5608,0.20804 -0.532,0.0694 -0.9941,0.10401 -1.3873,0.10401 -0.1387,-0.27751 -0.2546,-0.70516 -0.3472,-1.28331 -0.07,-0.60124 -0.127,-1.26005 -0.1735,-1.97698 l -1.1097,-0.27755 -2.0121,2.11602 c -0.3931,0.18499 -0.9133,0.38148 -1.5608,0.58966 -0.7212,0.18043 -1.4041,0.23601 -2.4631,0.28482 -1.1518,0.0354 -2.4983,0.15673 -4.8491,0.35276 -0.6821,0.0702 -1.8919,0.1485 -2.8169,0.26415 -0.9019,0.0926 -1.7118,0.16177 -2.4286,0.20804 0.6706,-0.6475 1.1913,-1.35284 1.5613,-2.11599 0.3699,-0.76314 0.659,-1.61849 0.8673,-2.56661 -0.1388,-0.4163 -0.3472,-0.83254 -0.6247,-1.24883 -0.2775,-0.41624 -0.6473,-0.78649 -1.1097,-1.11028 -0.4625,-0.34685 -1.0293,-0.62404 -1.6999,-0.83216 -0.6476,-0.20816 -1.4341,-0.31259 -2.3592,-0.31259 -0.7168,0 -1.4915,0.058 -2.3239,0.17354 -0.8095,0.11565 -1.6188,0.34677 -2.4282,0.69367 l -0.6591,3.85043 c 0.8093,0.39315 1.5727,0.93663 2.2895,1.63039 -0.9018,0.32377 -1.7458,0.59006 -2.5321,0.79817 -0.7863,0.18504 -1.5382,0.335 -2.255,0.4506 l -2.1015,0.11851 -3.3095,0.12456 c -0.1154,0.005 -0.1962,0.18513 -0.2427,0.55515 -0.07,0.34691 -0.1044,1.07502 -0.1044,2.185 0,1.82694 0.1158,2.74067 0.3471,2.74067 h 3.0457 c 0.067,0 1.8234,-0.0712 2.8771,-0.17204 1.3288,-0.19189 2.5576,-0.4929 3.686,-0.90319 1.2718,-0.48568 2.4514,-1.01775 3.5384,-1.5959 0.2543,0.53189 0.4736,1.07537 0.6586,1.63039 0.185,0.55503 0.3473,1.10986 0.4861,1.66488 0.6706,-0.0232 1.2833,-0.0578 1.8385,-0.10401 0.578,-0.0232 1.1443,-0.0692 1.6993,-0.13851 0.5551,-0.0462 1.1451,-0.11556 1.7695,-0.20808 0.5089,-0.0565 1.0714,-0.12878 1.6878,-0.21602 3.5658,-0.34718 5.1445,-0.4317 8.9614,-0.75574 0.902,-0.27751 1.6998,-0.58933 2.3937,-0.93623 0.07,0.37002 0.1504,0.72838 0.243,1.07528 0.093,0.32377 0.1965,0.64745 0.312,0.97122 0.3469,0 0.6706,-0.0113 0.9713,-0.0345 0.3006,-0.0232 0.6011,-0.0578 0.9016,-0.10402 0.3238,-0.0232 0.6708,-0.0578 1.0408,-0.10401 0.2571,-0.0323 1.2825,-0.0286 1.5953,-0.072 1.8991,0 3.3182,-0.16605 5.2633,-0.16605 0.5371,-0.0662 1.0608,-0.12572 1.571,-0.17853 0.6707,-0.0694 1.318,-0.15006 1.9424,-0.24258 0.2081,0.50877 0.4278,0.99436 0.6591,1.45686 0.2545,0.48567 0.497,0.90192 0.7282,1.24882 l 2.1511,-0.55516 c -0.3007,-0.90187 -0.4512,-1.81511 -0.4512,-2.74012 0.1157,-0.0232 0.2315,-0.0465 0.3472,-0.0695 0.1156,-0.0232 0.2309,-0.0578 0.3465,-0.10402 1.3183,-0.37003 2.7175,-0.8328 4.1976,-1.38782 1.48,-0.57815 2.8328,-1.26023 4.0584,-2.0465 1.2488,-0.80941 2.2778,-1.7345 3.0872,-2.77515 0.8094,-1.06379 1.2144,-2.27798 1.2144,-3.64241 0,-0.50876 -0.093,-1.0057 -0.2776,-1.49134 -0.185,-0.48563 -0.4628,-0.92519 -0.8327,-1.3183 -0.3701,-0.39316 -0.8443,-0.72824 -1.4223,-1.00575 -0.5551,-0.30064 -1.2025,-0.49713 -1.9425,-0.58964 -1.1101,0.25437 -2.3355,0.73996 -3.6769,1.45684 -1.3414,0.71687 -2.6247,1.60735 -3.8505,2.67114 -0.3237,-1.57254 -0.6014,-3.34208 -0.8326,-5.30779 -0.2081,-1.96565 -0.4048,-3.96585 -0.5897,-6.00095 z m 19.2521,3.12224 -4.3015,1.63038 c 0.3006,2.22008 0.5896,4.20888 0.8671,5.96646 0.3006,1.73441 0.6017,3.33022 0.9023,4.78712 0.3007,1.43381 0.6011,2.78656 0.9017,4.05851 0.3237,1.24877 0.6708,2.52035 1.0407,3.8154 l 3.0178,-0.62414 c -0.2082,-1.17943 -0.3815,-2.52081 -0.5201,-4.02397 -0.1388,-1.5263 -0.266,-3.12211 -0.3816,-4.78717 -0.093,-1.68819 -0.1851,-3.4107 -0.2776,-5.16824 -0.093,-1.78066 -0.1738,-3.52692 -0.243,-5.23825 z m -11.5168,9.71282 c 0.6245,0 1.1679,0.046 1.6304,0.13855 0.4858,0.0926 0.9138,0.26624 1.2839,0.52063 -0.7633,0.60127 -1.8387,1.09822 -3.2263,1.49133 -1.3643,0.39316 -2.879,0.74016 -4.5442,1.0408 0.555,-0.74006 1.1564,-1.37611 1.8039,-1.908 0.6708,-0.55502 1.3182,-0.97126 1.9426,-1.24877 h 0.5551 c 0.185,-0.0232 0.3697,-0.0345 0.5546,-0.0345 z m -27.0568,11.34322 -3.5386,2.25457 0.6248,1.3183 2.1853,2.4626 3.469,-2.25457 -0.7287,-1.4223 z m 39.5794,0.58965 c -0.7401,0 -1.3296,0.15 -1.769,0.45064 -0.4163,0.32373 -0.6247,0.84444 -0.6247,1.56138 0,0.39311 0.1045,0.76286 0.3126,1.10976 0.2314,0.34685 0.5317,0.68243 0.9017,1.00621 -0.3238,0.11564 -0.6241,0.21957 -0.9017,0.31209 -0.2775,0.0926 -0.6012,0.23109 -0.9712,0.4161 l 1.0057,1.97748 c 0.717,-0.27751 1.5035,-0.50867 2.3592,-0.69367 0.8556,-0.18501 1.688,-0.30083 2.4975,-0.34709 l -0.1735,-2.18554 -1.353,0.0695 c -0.2544,-0.185 -0.474,-0.37013 -0.659,-0.55512 -0.1851,-0.18499 -0.2776,-0.37012 -0.2776,-0.55512 0,-0.20815 0.1387,-0.31209 0.4162,-0.31209 0.208,0 0.451,0.0465 0.7286,0.13906 0.2775,0.1156 0.4972,0.20817 0.6592,0.27755 l 0.5551,-1.90799 c -0.4395,-0.25434 -0.879,-0.45087 -1.3184,-0.5896 -0.4162,-0.11566 -0.8789,-0.17354 -1.3877,-0.17354 z"
       sodipodi:nodetypes="ccccccccccsccccccccccscsccscccccccscssscccscccccccccscsccscccccsccccsssccsccccccccccccccccccccccccscscccccscsccsccscccsssccccssc" />
    <g
       id="g619"
       transform="matrix(0.95932698,0,0,0.95932698,-695.11587,22.218568)"
       style="fill:#52796f;fill-opacity:1;stroke-width:1.0424">
      <path
         id="path619"
         style="font-size:38.444px;font-family:'AmmanV3 Serif';-inkscape-font-specification:'AmmanV3 Serif';fill:#52796f;fill-opacity:1;stroke-width:0.233517"
         d="m 769.74286,112.42821 h -0.0358 l 0.71686,-5.19724 -1.75631,-2.97497 0.14338,-1.89968 5.23308,-1.03944 1.14697,0.39427 1.21866,4.22947 -0.93191,6.48759 h 0.0358 l -0.39427,2.79576 1.82799,1.75631 -0.17921,1.93553 -4.94634,1.03945 -3.04666,-1.25451 z m 0.7527,-19.140167 4.87465,-1.07529 0.82439,1.29035 0.86024,4.55206 -4.83881,1.03945 -0.78855,-1.32619 z m -29.39134,11.254707 2.29396,-2.90329 q 0.60933,-0.17921 1.11113,-0.2509 0.50181,-0.0717 1.21867,-0.0717 1.36203,0 2.25811,0.39428 0.93191,0.39427 1.46956,1.14697 0.53764,0.75271 0.75271,1.79215 0.21505,1.03945 0.21505,2.3298 0,1.14698 -0.14337,2.61654 -0.14337,1.43372 -0.53765,2.93913 -0.39427,1.50541 -1.07529,2.93913 -0.68101,1.43372 -1.72046,2.54486 -1.00361,1.03945 -2.29395,1.50541 -1.29036,0.43012 -2.65239,0.43012 -0.64517,0 -1.25451,-0.10754 -0.60933,-0.10753 -1.18281,-0.28674 l -0.25091,1.89968 1.89968,2.97498 -0.17921,1.93551 -5.23308,1.03946 -1.14698,-0.43012 -1.43372,-3.69183 1.61293,-10.86045 0.71686,-5.19724 -1.75631,-2.97497 0.14338,-1.89968 5.23308,-1.03945 1.14698,0.39428 z m -0.96776,11.0038 q 0.60933,0.21506 1.32619,0.21506 0.57349,0 0.93192,-0.10753 0.39428,-0.14337 0.78855,-0.35843 0.82439,-1.21866 1.14698,-2.90329 0.35843,-1.72046 0.35843,-3.54845 0,-1.00361 -0.39427,-1.75631 -0.35843,-0.78855 -1.14698,-0.78855 -0.35843,0 -0.5735,0.0717 -0.21505,0.0717 -0.50179,0.2509 -0.17922,0.2509 -0.39428,0.60933 -0.21506,0.35843 -0.43012,0.7527 l -0.64517,4.44454 z m 19.31943,-11.07549 2.2581,-2.8316 q 0.60934,-0.17921 1.0753,-0.2509 0.46595,-0.0717 1.14697,-0.0717 1.25451,0 1.97137,0.5018 0.71686,0.50181 1.14697,1.43373 l 0.10754,5.41229 -3.08251,1.36204 -1.18282,-0.39428 -0.71686,-3.0825 q -0.64517,-0.28674 -1.61293,0 -0.25091,0.21506 -0.50181,0.60933 -0.21506,0.35843 -0.46596,0.82439 l -0.64517,4.44454 -0.39427,2.79576 1.86383,1.75631 -0.17922,1.93553 -4.98217,1.03945 -3.01082,-1.25451 0.93193,-6.27254 0.75269,-5.19724 -1.79215,-2.97497 0.14338,-1.89968 5.23308,-1.03945 1.18282,0.39428 z m 10.28697,7.95715 h -0.0358 l 0.71686,-5.19724 -1.75631,-2.97497 0.14338,-1.89968 5.23308,-1.03944 1.14697,0.39427 1.21866,4.22947 -0.93191,6.48759 h 0.0358 l -0.39427,2.79576 1.82799,1.75631 -0.17921,1.93553 -4.94634,1.03945 -3.04666,-1.25451 z m 0.7527,-19.140167 4.87465,-1.07529 0.82439,1.29035 0.86024,4.55206 -4.83881,1.03945 -0.78855,-1.32619 z m 9.5701,19.140167 h -0.0359 l 0.71686,-5.19724 -1.7563,-2.97497 0.14336,-1.89968 5.23309,-1.03944 1.14697,0.39427 0.78855,2.72407 h 0.35843 q 1.50541,-1.72047 3.04666,-2.40148 1.5771,-0.71686 3.11834,-0.71686 2.00721,0 2.68823,0.86023 0.71686,0.86023 0.71686,2.47316 0,0.64518 -0.0717,1.39787 -0.0717,0.75271 -0.21505,1.5771 l -0.96776,6.38006 1.93552,2.97498 -0.17921,1.93553 -5.23309,1.03945 -1.14698,-0.43012 -1.46956,-4.62376 1.07529,-5.62736 q 0.17922,-0.89608 0.17922,-1.43372 0,-0.5018 -0.21506,-0.7527 -0.21506,-0.28675 -0.82439,-0.28675 -0.35843,0 -0.71687,0.0717 -0.35843,0.0717 -0.86022,0.2509 -0.35843,0.46596 -0.71686,1.14697 -0.32259,0.68103 -0.68102,1.75632 v 0.10752 l -0.32259,2.29396 h 0.0358 l -0.39427,2.79576 1.82799,1.75631 -0.17922,1.93553 -4.94633,1.03945 -3.04666,-1.25451 z m 19.31941,-10.7529 h 2.47316 l 0.0359,-0.17922 0.0358,-2.831597 5.23309,-1.0036 1.21866,0.2509 -0.7527,3.763517 h 2.22227 l 0.2509,3.26171 -3.04666,0.93191 -0.89607,6.55928 -0.39428,2.79576 1.828,1.75631 -0.17922,1.93553 -4.98218,1.03945 -3.01082,-1.25451 0.96776,-6.27254 0.82439,-5.98579 -2.47316,-2.54485 z" />
    </g>
  </g>
</svg>
